<svg width="1728" height="1070" viewBox="0 0 1728 1070" fill="none" xmlns="http://www.w3.org/2000/svg">
<path d="M1438.06 124.752C1438.31 126.096 1439.26 127.02 1440.84 127.02C1442.13 127.02 1443 126.488 1443 125.494C1443 124.486 1442.13 123.87 1440.13 123.352C1438.48 122.932 1437.04 122.148 1437.04 120.552C1437.04 118.886 1438.38 117.836 1440.28 117.836C1442.41 117.836 1443.83 119.166 1444.02 120.986L1442.79 121.07C1442.62 119.824 1441.66 118.984 1440.27 118.984C1439.11 118.984 1438.27 119.586 1438.27 120.552C1438.27 121.77 1439.68 122.106 1440.98 122.47C1442.82 122.974 1444.23 123.87 1444.23 125.382C1444.23 127.202 1442.55 128.168 1440.76 128.168C1438.58 128.168 1436.98 126.824 1436.83 124.836L1438.06 124.752ZM1445.98 118.06H1447.13V121.616C1447.56 120.79 1448.43 120.412 1449.36 120.412C1451.05 120.412 1451.86 121.658 1451.86 123.226V128H1450.71V123.646C1450.71 122.26 1450.25 121.504 1449.12 121.504C1447.91 121.504 1447.13 122.26 1447.13 123.646V128H1445.98V118.06ZM1453.75 122.764C1454.04 121.322 1455.19 120.412 1456.77 120.412C1458.69 120.412 1459.76 121.532 1459.76 123.52V126.502C1459.76 126.838 1459.9 126.978 1460.22 126.978H1460.51V128H1460.02C1459.27 128 1458.61 127.748 1458.62 126.838C1458.3 127.538 1457.46 128.168 1456.28 128.168C1454.81 128.168 1453.62 127.384 1453.62 126.068C1453.62 124.542 1454.79 124.15 1456.41 123.828L1458.61 123.408C1458.59 122.12 1457.99 121.504 1456.77 121.504C1455.82 121.504 1455.19 121.994 1454.97 122.862L1453.75 122.764ZM1454.83 126.068C1454.83 126.67 1455.35 127.16 1456.44 127.146C1457.67 127.146 1458.64 126.278 1458.64 124.556V124.43L1456.86 124.738C1455.75 124.934 1454.83 125.018 1454.83 126.068ZM1462.09 120.58H1463.09L1463.14 121.952C1463.39 121.014 1463.95 120.58 1464.91 120.58H1465.63V121.588H1464.91C1463.78 121.588 1463.23 122.288 1463.23 123.576V128H1462.09V120.58ZM1466.38 124.29C1466.38 121.938 1467.71 120.412 1469.77 120.412C1471.42 120.412 1472.86 121.518 1472.99 124.136L1473 124.654H1467.6C1467.71 126.18 1468.48 127.076 1469.77 127.076C1470.58 127.076 1471.31 126.6 1471.64 125.816L1472.88 125.9C1472.44 127.3 1471.2 128.168 1469.77 128.168C1467.71 128.168 1466.38 126.642 1466.38 124.29ZM1467.63 123.632H1471.74C1471.53 122.064 1470.69 121.504 1469.77 121.504C1468.58 121.504 1467.81 122.288 1467.63 123.632ZM1480.9 118.06V128H1479.87L1479.83 126.908C1479.41 127.692 1478.61 128.168 1477.46 128.168C1475.32 128.168 1474.32 126.348 1474.32 124.29C1474.32 122.232 1475.32 120.412 1477.46 120.412C1478.55 120.412 1479.34 120.832 1479.76 121.588V118.06H1480.9ZM1475.53 124.29C1475.53 125.732 1476.14 127.076 1477.7 127.076C1479.22 127.076 1479.85 125.704 1479.85 124.29C1479.85 122.82 1479.22 121.462 1477.7 121.462C1476.14 121.462 1475.53 122.806 1475.53 124.29ZM1491.51 123.058C1491.34 122.078 1490.54 121.504 1489.63 121.504C1488.25 121.504 1487.45 122.554 1487.45 124.29C1487.45 126.026 1488.25 127.076 1489.63 127.076C1490.59 127.076 1491.4 126.446 1491.57 125.382L1492.78 125.452C1492.55 127.132 1491.22 128.168 1489.63 128.168C1487.58 128.168 1486.25 126.642 1486.25 124.29C1486.25 121.938 1487.58 120.412 1489.63 120.412C1491.16 120.412 1492.52 121.392 1492.71 122.974L1491.51 123.058ZM1494.42 118.06H1495.57V121.616C1496 120.79 1496.87 120.412 1497.79 120.412C1499.49 120.412 1500.3 121.658 1500.3 123.226V128H1499.15V123.646C1499.15 122.26 1498.69 121.504 1497.56 121.504C1496.35 121.504 1495.57 122.26 1495.57 123.646V128H1494.42V118.06ZM1502.19 122.764C1502.48 121.322 1503.63 120.412 1505.21 120.412C1507.13 120.412 1508.2 121.532 1508.2 123.52V126.502C1508.2 126.838 1508.34 126.978 1508.66 126.978H1508.95V128H1508.46C1507.71 128 1507.05 127.748 1507.06 126.838C1506.74 127.538 1505.9 128.168 1504.72 128.168C1503.25 128.168 1502.06 127.384 1502.06 126.068C1502.06 124.542 1503.23 124.15 1504.85 123.828L1507.05 123.408C1507.03 122.12 1506.43 121.504 1505.21 121.504C1504.26 121.504 1503.63 121.994 1503.41 122.862L1502.19 122.764ZM1503.27 126.068C1503.27 126.67 1503.79 127.16 1504.88 127.146C1506.11 127.146 1507.08 126.278 1507.08 124.556V124.43L1505.3 124.738C1504.19 124.934 1503.27 125.018 1503.27 126.068ZM1510.53 120.58H1511.58L1511.62 121.854C1512 120.86 1512.88 120.412 1513.9 120.412C1515.59 120.412 1516.41 121.658 1516.41 123.226V128H1515.26V123.562C1515.26 122.19 1514.8 121.434 1513.66 121.434C1512.46 121.434 1511.67 122.19 1511.67 123.562V128H1510.53V120.58ZM1518.43 120.58H1519.48L1519.52 121.854C1519.9 120.86 1520.78 120.412 1521.8 120.412C1523.5 120.412 1524.31 121.658 1524.31 123.226V128H1523.16V123.562C1523.16 122.19 1522.7 121.434 1521.56 121.434C1520.36 121.434 1519.58 122.19 1519.58 123.562V128H1518.43V120.58ZM1525.87 124.29C1525.87 121.938 1527.2 120.412 1529.25 120.412C1530.91 120.412 1532.35 121.518 1532.47 124.136L1532.49 124.654H1527.08C1527.2 126.18 1527.97 127.076 1529.25 127.076C1530.07 127.076 1530.79 126.6 1531.13 125.816L1532.36 125.9C1531.93 127.3 1530.68 128.168 1529.25 128.168C1527.2 128.168 1525.87 126.642 1525.87 124.29ZM1527.11 123.632H1531.23C1531.02 122.064 1530.18 121.504 1529.25 121.504C1528.06 121.504 1527.29 122.288 1527.11 123.632ZM1534.37 118.06H1535.52V126.516C1535.52 126.838 1535.67 126.978 1535.99 126.978H1536.62V128H1535.83C1534.94 128 1534.37 127.426 1534.37 126.572V118.06ZM1542.45 122.862C1542.28 122.008 1541.44 121.504 1540.6 121.504C1539.76 121.504 1539.09 121.938 1539.09 122.652C1539.11 123.38 1540.04 123.688 1540.88 123.87C1542.58 124.192 1543.8 124.668 1543.8 126.11C1543.8 127.538 1542.33 128.168 1540.91 128.168C1539.16 128.168 1537.82 127.202 1537.71 125.676L1538.91 125.592C1539.05 126.488 1539.78 127.076 1540.91 127.076C1541.67 127.076 1542.59 126.824 1542.59 126.054C1542.59 125.158 1541.53 125.06 1540.67 124.85C1539.3 124.528 1537.9 124.136 1537.9 122.722C1537.89 121.308 1539.04 120.412 1540.73 120.412C1542.21 120.412 1543.42 121.35 1543.66 122.778L1542.45 122.862Z" fill="#7B7481"/>
<path d="M1447.41 142.888C1446.53 142.402 1445.74 142.021 1445.84 141.076C1445.95 139.999 1446.82 139.583 1447.7 139.259C1450.73 138.147 1453.92 137.823 1457.09 137.517C1461.46 137.096 1465.85 136.974 1470.24 137.004C1477.68 137.057 1485.07 137.674 1492.42 138.756C1494.47 139.058 1496.48 138.659 1498.51 138.589C1501.62 138.48 1504.72 138.125 1507.82 137.994C1515.64 137.661 1523.46 137.32 1531.28 137.525C1534.78 137.617 1538.31 137.626 1541.78 138.182C1542.68 138.327 1543.95 138.278 1544 139.539C1544.04 140.822 1542.79 140.831 1541.88 141.001C1538.7 141.588 1535.48 141.855 1532.25 142.083C1525.74 142.547 1519.21 142.927 1512.5 143.116C1513.83 143.659 1515 144.118 1516.16 144.617C1516.63 144.823 1517.09 145.081 1517.51 145.379C1519.53 146.789 1519.46 148.605 1517.29 149.765C1514.55 151.232 1511.49 151.753 1508.47 152.322C1500.94 153.736 1493.33 154.677 1485.74 155.697C1476.01 157.002 1466.26 158.201 1456.76 160.762C1455.14 161.196 1453.49 161.52 1451.85 161.857C1451.42 161.944 1450.76 162.22 1450.6 161.646C1450.45 161.143 1451.13 161.055 1451.51 160.889C1457.47 158.293 1463.72 156.687 1470.12 155.605C1481.73 153.648 1493.45 152.436 1505.08 150.588C1508.51 150.041 1511.95 149.533 1515.25 148.404C1515.79 148.216 1516.62 148.119 1516.67 147.493C1516.73 146.771 1515.87 146.592 1515.32 146.338C1512.22 144.897 1508.91 144.136 1505.61 143.365C1504.78 143.173 1503.94 143.492 1503.11 143.505C1497.4 143.602 1491.69 143.672 1485.98 143.794C1477 143.987 1468.02 144.096 1459.04 143.969C1452.68 143.877 1446.39 144.714 1440.08 145.129C1435.34 145.445 1430.61 145.861 1425.97 146.951C1425.61 147.034 1425.22 147.139 1425.04 146.692C1424.88 146.281 1425.2 146.027 1425.49 145.808C1426.28 145.221 1427.23 145.024 1428.16 144.832C1432.24 143.991 1436.38 143.698 1440.52 143.4C1442.74 143.243 1444.95 143.068 1447.39 142.888H1447.41ZM1481.03 139.999C1472.74 138.567 1451.78 139.469 1448.98 141.268C1452.08 141.868 1455.13 142.201 1458.2 142.03C1462.37 141.794 1466.54 141.373 1470.71 141.001C1474.15 140.69 1477.59 140.336 1481.03 139.999H1481.03ZM1537.51 139.789C1530.1 139.443 1504.99 140.108 1503.3 140.712C1504.75 141.014 1506.05 141.54 1507.48 141.474C1512.34 141.251 1517.2 141.036 1522.06 140.839C1527.12 140.634 1532.17 140.314 1537.51 139.789ZM1483.11 141.868H1496.69C1491.78 140.515 1486.9 141.881 1483.11 141.868Z" fill="#DFDCD8"/>
<path d="M1514.35 584.391V574.451H1517.43C1518.96 574.451 1520.14 574.885 1520.96 575.753C1521.79 576.612 1522.2 577.839 1522.2 579.435C1522.2 581.022 1521.8 582.244 1520.99 583.103C1520.17 583.962 1519.02 584.391 1517.51 584.391H1514.35ZM1515.55 583.215H1517.43C1518.6 583.215 1519.47 582.902 1520.06 582.277C1520.65 581.642 1520.94 580.695 1520.94 579.435C1520.94 578.156 1520.65 577.204 1520.06 576.579C1519.47 575.944 1518.6 575.627 1517.43 575.627H1515.55V583.215ZM1526.95 584.559C1526.25 584.559 1525.64 584.4 1525.13 584.083C1524.63 583.766 1524.24 583.318 1523.96 582.739C1523.68 582.151 1523.55 581.465 1523.55 580.681C1523.55 579.897 1523.68 579.216 1523.96 578.637C1524.24 578.058 1524.62 577.61 1525.12 577.293C1525.62 576.966 1526.21 576.803 1526.9 576.803C1527.54 576.803 1528.11 576.957 1528.6 577.265C1529.1 577.564 1529.48 578.002 1529.75 578.581C1530.03 579.16 1530.17 579.864 1530.17 580.695V581.045H1524.78C1524.83 581.838 1525.04 582.436 1525.41 582.837C1525.79 583.238 1526.31 583.439 1526.95 583.439C1527.44 583.439 1527.83 583.327 1528.14 583.103C1528.46 582.87 1528.68 582.566 1528.8 582.193L1530.06 582.291C1529.86 582.954 1529.49 583.5 1528.94 583.929C1528.4 584.349 1527.74 584.559 1526.95 584.559ZM1524.78 580.009H1528.88C1528.83 579.29 1528.62 578.763 1528.25 578.427C1527.9 578.091 1527.45 577.923 1526.9 577.923C1526.33 577.923 1525.85 578.1 1525.48 578.455C1525.12 578.8 1524.88 579.318 1524.78 580.009ZM1531.89 586.491V576.971H1532.98L1533.01 578.567L1532.84 578.483C1533.03 577.932 1533.33 577.517 1533.76 577.237C1534.2 576.948 1534.71 576.803 1535.27 576.803C1536.01 576.803 1536.61 576.985 1537.08 577.349C1537.56 577.713 1537.91 578.189 1538.13 578.777C1538.36 579.365 1538.48 580 1538.48 580.681C1538.48 581.362 1538.36 581.997 1538.13 582.585C1537.91 583.173 1537.56 583.649 1537.08 584.013C1536.61 584.377 1536.01 584.559 1535.27 584.559C1534.89 584.559 1534.53 584.494 1534.2 584.363C1533.87 584.232 1533.59 584.05 1533.36 583.817C1533.13 583.584 1532.98 583.308 1532.89 582.991L1533.06 582.795V586.491H1531.89ZM1535.16 583.439C1535.81 583.439 1536.32 583.196 1536.69 582.711C1537.06 582.226 1537.25 581.549 1537.25 580.681C1537.25 579.813 1537.06 579.136 1536.69 578.651C1536.32 578.166 1535.81 577.923 1535.16 577.923C1534.73 577.923 1534.36 578.026 1534.04 578.231C1533.73 578.436 1533.49 578.744 1533.31 579.155C1533.15 579.566 1533.06 580.074 1533.06 580.681C1533.06 581.288 1533.15 581.796 1533.31 582.207C1533.48 582.618 1533.73 582.926 1534.04 583.131C1534.36 583.336 1534.73 583.439 1535.16 583.439ZM1542.3 584.559C1541.53 584.559 1540.92 584.382 1540.46 584.027C1540.02 583.672 1539.79 583.178 1539.79 582.543C1539.79 581.908 1539.98 581.409 1540.35 581.045C1540.72 580.681 1541.32 580.424 1542.13 580.275L1544.76 579.785C1544.76 579.16 1544.61 578.693 1544.31 578.385C1544.02 578.077 1543.59 577.923 1543 577.923C1542.48 577.923 1542.08 578.04 1541.78 578.273C1541.48 578.497 1541.28 578.824 1541.16 579.253L1539.92 579.155C1540.06 578.455 1540.39 577.89 1540.93 577.461C1541.47 577.022 1542.16 576.803 1543 576.803C1543.95 576.803 1544.68 577.074 1545.18 577.615C1545.69 578.147 1545.94 578.884 1545.94 579.827V582.893C1545.94 583.061 1545.97 583.182 1546.02 583.257C1546.09 583.322 1546.19 583.355 1546.33 583.355H1546.62V584.391C1546.59 584.4 1546.53 584.405 1546.44 584.405C1546.36 584.414 1546.27 584.419 1546.18 584.419C1545.84 584.419 1545.56 584.368 1545.35 584.265C1545.14 584.153 1544.99 583.985 1544.9 583.761C1544.81 583.528 1544.76 583.224 1544.76 582.851L1544.9 582.879C1544.84 583.196 1544.68 583.486 1544.43 583.747C1544.17 583.999 1543.86 584.2 1543.49 584.349C1543.11 584.489 1542.72 584.559 1542.3 584.559ZM1542.41 583.523C1542.9 583.523 1543.32 583.43 1543.67 583.243C1544.02 583.047 1544.29 582.786 1544.48 582.459C1544.67 582.123 1544.76 581.75 1544.76 581.339V580.807L1542.35 581.255C1541.85 581.348 1541.5 581.493 1541.3 581.689C1541.12 581.876 1541.02 582.123 1541.02 582.431C1541.02 582.776 1541.14 583.047 1541.39 583.243C1541.64 583.43 1541.98 583.523 1542.41 583.523ZM1548.17 584.391V576.971H1549.21L1549.26 578.847L1549.15 578.805C1549.24 578.17 1549.44 577.708 1549.75 577.419C1550.07 577.12 1550.49 576.971 1551.01 576.971H1551.74V578.091H1551.03C1550.65 578.091 1550.34 578.161 1550.09 578.301C1549.84 578.432 1549.66 578.632 1549.53 578.903C1549.41 579.164 1549.35 579.5 1549.35 579.911V584.391H1548.17ZM1556.03 584.391C1555.35 584.391 1554.85 584.237 1554.53 583.929C1554.21 583.621 1554.05 583.14 1554.05 582.487V575.235H1555.23V582.459C1555.23 582.795 1555.3 583.028 1555.45 583.159C1555.6 583.29 1555.83 583.355 1556.14 583.355H1557.2V584.391H1556.03ZM1552.96 578.007V576.971H1557.2V578.007H1552.96ZM1558.9 584.391V576.971H1559.98L1560.02 578.847L1559.85 578.791C1559.94 578.38 1560.08 578.03 1560.29 577.741C1560.5 577.442 1560.76 577.214 1561.07 577.055C1561.38 576.887 1561.72 576.803 1562.09 576.803C1562.74 576.803 1563.26 576.98 1563.66 577.335C1564.07 577.69 1564.33 578.184 1564.43 578.819L1564.21 578.805C1564.28 578.376 1564.42 578.016 1564.61 577.727C1564.82 577.428 1565.08 577.2 1565.4 577.041C1565.72 576.882 1566.08 576.803 1566.49 576.803C1567.02 576.803 1567.47 576.915 1567.83 577.139C1568.2 577.354 1568.47 577.671 1568.66 578.091C1568.85 578.511 1568.94 579.02 1568.94 579.617V584.391H1567.76V579.869C1567.76 579.197 1567.63 578.693 1567.37 578.357C1567.11 578.012 1566.72 577.839 1566.21 577.839C1565.86 577.839 1565.56 577.923 1565.3 578.091C1565.05 578.259 1564.85 578.502 1564.71 578.819C1564.57 579.127 1564.5 579.505 1564.5 579.953V584.391H1563.33V579.953C1563.33 579.29 1563.21 578.772 1562.98 578.399C1562.74 578.026 1562.35 577.839 1561.8 577.839C1561.45 577.839 1561.15 577.923 1560.89 578.091C1560.64 578.259 1560.44 578.502 1560.29 578.819C1560.15 579.136 1560.08 579.514 1560.08 579.953V584.391H1558.9ZM1573.91 584.559C1573.21 584.559 1572.61 584.4 1572.09 584.083C1571.59 583.766 1571.2 583.318 1570.92 582.739C1570.65 582.151 1570.51 581.465 1570.51 580.681C1570.51 579.897 1570.65 579.216 1570.92 578.637C1571.2 578.058 1571.59 577.61 1572.08 577.293C1572.58 576.966 1573.18 576.803 1573.86 576.803C1574.5 576.803 1575.07 576.957 1575.57 577.265C1576.06 577.564 1576.44 578.002 1576.71 578.581C1576.99 579.16 1577.13 579.864 1577.13 580.695V581.045H1571.74C1571.79 581.838 1572 582.436 1572.37 582.837C1572.76 583.238 1573.27 583.439 1573.91 583.439C1574.4 583.439 1574.8 583.327 1575.1 583.103C1575.42 582.87 1575.64 582.566 1575.76 582.193L1577.02 582.291C1576.83 582.954 1576.45 583.5 1575.9 583.929C1575.36 584.349 1574.7 584.559 1573.91 584.559ZM1571.74 580.009H1575.85C1575.79 579.29 1575.58 578.763 1575.22 578.427C1574.86 578.091 1574.41 577.923 1573.86 577.923C1573.29 577.923 1572.82 578.1 1572.44 578.455C1572.08 578.8 1571.85 579.318 1571.74 580.009ZM1578.85 584.391V576.971H1579.93L1579.97 578.861L1579.83 578.735C1579.92 578.296 1580.09 577.937 1580.32 577.657C1580.55 577.368 1580.83 577.153 1581.16 577.013C1581.5 576.873 1581.85 576.803 1582.24 576.803C1582.81 576.803 1583.27 576.929 1583.64 577.181C1584.01 577.433 1584.29 577.774 1584.46 578.203C1584.65 578.623 1584.74 579.094 1584.74 579.617V584.391H1583.57V579.953C1583.57 579.496 1583.51 579.113 1583.4 578.805C1583.3 578.488 1583.13 578.25 1582.9 578.091C1582.66 577.923 1582.36 577.839 1581.99 577.839C1581.42 577.839 1580.94 578.021 1580.57 578.385C1580.21 578.74 1580.03 579.262 1580.03 579.953V584.391H1578.85ZM1589.28 584.391C1588.6 584.391 1588.1 584.237 1587.78 583.929C1587.46 583.621 1587.3 583.14 1587.3 582.487V575.235H1588.48V582.459C1588.48 582.795 1588.55 583.028 1588.7 583.159C1588.85 583.29 1589.08 583.355 1589.39 583.355H1590.45V584.391H1589.28ZM1586.21 578.007V576.971H1590.45V578.007H1586.21ZM1594.62 584.559C1593.96 584.559 1593.4 584.452 1592.93 584.237C1592.47 584.022 1592.11 583.728 1591.85 583.355C1591.6 582.972 1591.45 582.538 1591.42 582.053L1592.65 581.969C1592.72 582.417 1592.91 582.776 1593.22 583.047C1593.53 583.308 1594 583.439 1594.62 583.439C1595.13 583.439 1595.53 583.36 1595.83 583.201C1596.13 583.033 1596.29 582.767 1596.29 582.403C1596.29 582.207 1596.24 582.044 1596.15 581.913C1596.06 581.782 1595.87 581.67 1595.6 581.577C1595.33 581.474 1594.93 581.376 1594.4 581.283C1593.69 581.152 1593.13 580.994 1592.72 580.807C1592.32 580.611 1592.03 580.373 1591.85 580.093C1591.68 579.804 1591.6 579.463 1591.6 579.071C1591.6 578.408 1591.84 577.867 1592.33 577.447C1592.81 577.018 1593.5 576.803 1594.4 576.803C1595.01 576.803 1595.51 576.915 1595.92 577.139C1596.34 577.354 1596.67 577.643 1596.9 578.007C1597.15 578.362 1597.31 578.754 1597.38 579.183L1596.15 579.267C1596.09 579.006 1595.99 578.777 1595.84 578.581C1595.69 578.376 1595.5 578.217 1595.25 578.105C1595.01 577.984 1594.72 577.923 1594.38 577.923C1593.85 577.923 1593.46 578.026 1593.21 578.231C1592.96 578.436 1592.83 578.698 1592.83 579.015C1592.83 579.258 1592.89 579.458 1593 579.617C1593.12 579.766 1593.31 579.892 1593.57 579.995C1593.83 580.088 1594.18 580.172 1594.62 580.247C1595.38 580.378 1595.97 580.536 1596.39 580.723C1596.81 580.91 1597.1 581.138 1597.27 581.409C1597.44 581.68 1597.52 582.011 1597.52 582.403C1597.52 582.86 1597.39 583.252 1597.13 583.579C1596.88 583.896 1596.53 584.139 1596.09 584.307C1595.66 584.475 1595.17 584.559 1594.62 584.559Z" fill="#7B7481"/>
<path d="M1549.33 603.236C1556.27 603.331 1562.47 602.772 1568.68 602.981C1569.97 603.023 1571.25 603.104 1572.54 603.222C1573 603.265 1573.69 603.241 1573.69 603.89C1573.69 604.434 1573.05 604.458 1572.64 604.562C1568.26 605.632 1563.81 606.257 1559.31 606.583C1549.45 607.298 1539.62 607.213 1529.89 605.372C1521 603.691 1512.4 601.229 1504.53 596.897C1502.78 595.936 1501.17 594.791 1499.73 593.437C1495.54 589.502 1494.87 584.721 1497.77 579.878C1500.24 575.773 1503.81 572.639 1507.77 569.851C1517.92 562.702 1529.38 558.134 1541.62 555.194C1549.99 553.186 1558.5 552.216 1567.14 552.031C1577.57 551.809 1587.81 552.751 1597.78 555.686C1601.44 556.761 1604.94 558.176 1608.04 560.34C1613.66 564.26 1615.53 569.609 1612.68 575.612C1607.95 585.564 1600.06 592.731 1589.34 597.063C1587.09 597.967 1584.68 598.417 1582.21 598.322C1581.62 598.299 1581.47 598.479 1581.59 598.99C1581.8 599.913 1582.01 600.841 1582.17 601.774C1582.33 602.673 1582.35 603.582 1581.93 604.434C1581.4 605.504 1580.49 606.02 1579.24 605.708C1576.88 605.121 1574.88 603.913 1573.08 602.394C1572.68 602.053 1572.24 601.556 1572.7 601.049C1573.17 600.519 1573.7 600.926 1574.15 601.234C1575.42 602.095 1576.81 602.768 1578.27 603.298C1579.71 603.819 1579.88 603.686 1579.76 602.29C1579.63 600.822 1579.2 599.416 1578.85 597.996C1578.53 596.717 1579.06 595.908 1580.39 596.045C1587.21 596.755 1592.45 593.612 1597.46 589.995C1601.83 586.842 1605.5 583.05 1608.46 578.685C1609.97 576.455 1611.13 574.097 1611.52 571.427C1611.94 568.483 1610.99 565.992 1608.92 563.848C1606.02 560.856 1602.23 559.189 1598.25 557.873C1592.01 555.804 1585.55 554.715 1578.97 554.261C1567.6 553.475 1556.34 554.114 1545.26 556.642C1531.49 559.786 1518.78 565.008 1507.87 573.662C1505.33 575.679 1503.1 577.956 1501.35 580.621C1498.56 584.872 1499.22 588.66 1503.39 591.789C1507.44 594.824 1512.15 596.67 1516.99 598.261C1527.68 601.783 1538.7 603.492 1549.33 603.251L1549.33 603.236Z" fill="#DFDCD8"/>
<path d="M177.457 178.224C176.514 178.224 175.702 178.019 175.021 177.608C174.349 177.188 173.831 176.591 173.467 175.816C173.103 175.041 172.921 174.117 172.921 173.044C172.921 171.971 173.103 171.047 173.467 170.272C173.831 169.488 174.349 168.886 175.021 168.466C175.702 168.046 176.514 167.836 177.457 167.836C178.409 167.836 179.221 168.046 179.893 168.466C180.574 168.886 181.097 169.488 181.461 170.272C181.825 171.047 182.007 171.971 182.007 173.044C182.007 174.117 181.825 175.041 181.461 175.816C181.097 176.591 180.574 177.188 179.893 177.608C179.221 178.019 178.409 178.224 177.457 178.224ZM177.457 177.048C178.147 177.048 178.735 176.889 179.221 176.572C179.715 176.255 180.093 175.797 180.355 175.2C180.616 174.603 180.747 173.884 180.747 173.044C180.747 172.204 180.616 171.485 180.355 170.888C180.093 170.281 179.715 169.819 179.221 169.502C178.735 169.175 178.147 169.012 177.457 169.012C176.775 169.012 176.187 169.175 175.693 169.502C175.207 169.819 174.834 170.281 174.573 170.888C174.311 171.485 174.181 172.204 174.181 173.044C174.181 173.884 174.311 174.603 174.573 175.2C174.834 175.797 175.207 176.255 175.693 176.572C176.187 176.889 176.775 177.048 177.457 177.048ZM185.858 178.168C185.092 178.168 184.481 177.991 184.024 177.636C183.576 177.281 183.352 176.787 183.352 176.152C183.352 175.517 183.538 175.018 183.912 174.654C184.285 174.29 184.878 174.033 185.69 173.884L188.322 173.394C188.322 172.769 188.172 172.302 187.874 171.994C187.584 171.686 187.146 171.532 186.558 171.532C186.044 171.532 185.638 171.649 185.34 171.882C185.041 172.106 184.836 172.433 184.724 172.862L183.478 172.764C183.618 172.064 183.954 171.499 184.486 171.07C185.027 170.631 185.718 170.412 186.558 170.412C187.51 170.412 188.238 170.683 188.742 171.224C189.246 171.756 189.498 172.493 189.498 173.436V176.502C189.498 176.67 189.526 176.791 189.582 176.866C189.647 176.931 189.75 176.964 189.89 176.964H190.184V178C190.146 178.009 190.086 178.014 190.002 178.014C189.918 178.023 189.829 178.028 189.736 178.028C189.4 178.028 189.124 177.977 188.91 177.874C188.704 177.762 188.555 177.594 188.462 177.37C188.368 177.137 188.322 176.833 188.322 176.46L188.462 176.488C188.396 176.805 188.238 177.095 187.986 177.356C187.734 177.608 187.421 177.809 187.048 177.958C186.674 178.098 186.278 178.168 185.858 178.168ZM185.97 177.132C186.464 177.132 186.884 177.039 187.23 176.852C187.584 176.656 187.855 176.395 188.042 176.068C188.228 175.732 188.322 175.359 188.322 174.948V174.416L185.914 174.864C185.41 174.957 185.06 175.102 184.864 175.298C184.677 175.485 184.584 175.732 184.584 176.04C184.584 176.385 184.705 176.656 184.948 176.852C185.2 177.039 185.54 177.132 185.97 177.132ZM194.097 178.168C193.36 178.168 192.767 177.921 192.319 177.426C191.881 176.922 191.661 176.231 191.661 175.354V170.58H192.837V175.032C192.837 175.751 192.963 176.283 193.215 176.628C193.477 176.964 193.873 177.132 194.405 177.132C194.993 177.132 195.455 176.945 195.791 176.572C196.127 176.189 196.295 175.667 196.295 175.004V170.58H197.471V178H196.351V176.166L196.533 176.264C196.384 176.871 196.099 177.342 195.679 177.678C195.259 178.005 194.732 178.168 194.097 178.168ZM202.17 178C201.498 178 200.999 177.846 200.672 177.538C200.355 177.23 200.196 176.749 200.196 176.096V168.844H201.372V176.068C201.372 176.404 201.447 176.637 201.596 176.768C201.746 176.899 201.974 176.964 202.282 176.964H203.346V178H202.17ZM199.104 171.616V170.58H203.346V171.616H199.104ZM204.978 178V168.06H206.154V172.218L206.014 172.19C206.107 171.779 206.266 171.443 206.49 171.182C206.714 170.921 206.989 170.729 207.316 170.608C207.642 170.477 208.002 170.412 208.394 170.412C208.926 170.412 209.374 170.533 209.738 170.776C210.111 171.009 210.391 171.341 210.578 171.77C210.774 172.19 210.872 172.675 210.872 173.226V178H209.696V173.562C209.696 172.843 209.565 172.311 209.304 171.966C209.052 171.621 208.664 171.448 208.142 171.448C207.544 171.448 207.064 171.63 206.7 171.994C206.336 172.358 206.154 172.885 206.154 173.576V178H204.978ZM219.328 178C218.656 178 218.157 177.846 217.83 177.538C217.513 177.23 217.354 176.749 217.354 176.096V168.844H218.53V176.068C218.53 176.404 218.605 176.637 218.754 176.768C218.904 176.899 219.132 176.964 219.44 176.964H220.504V178H219.328ZM216.262 171.616V170.58H220.504V171.616H216.262ZM224.871 178.168C224.189 178.168 223.592 178.009 223.079 177.692C222.565 177.375 222.169 176.927 221.889 176.348C221.609 175.76 221.469 175.074 221.469 174.29C221.469 173.497 221.609 172.811 221.889 172.232C222.169 171.653 222.565 171.205 223.079 170.888C223.592 170.571 224.189 170.412 224.871 170.412C225.552 170.412 226.145 170.571 226.649 170.888C227.162 171.205 227.559 171.653 227.839 172.232C228.119 172.811 228.259 173.497 228.259 174.29C228.259 175.074 228.119 175.76 227.839 176.348C227.559 176.927 227.162 177.375 226.649 177.692C226.145 178.009 225.552 178.168 224.871 178.168ZM224.871 177.048C225.552 177.048 226.079 176.805 226.453 176.32C226.835 175.825 227.027 175.149 227.027 174.29C227.027 173.431 226.835 172.759 226.453 172.274C226.079 171.779 225.552 171.532 224.871 171.532C224.189 171.532 223.657 171.779 223.275 172.274C222.892 172.759 222.701 173.431 222.701 174.29C222.701 175.149 222.892 175.825 223.275 176.32C223.657 176.805 224.189 177.048 224.871 177.048ZM229.765 178V168.06H230.941V174.57L234.553 170.58H236.121L233.195 173.73L236.247 178H234.819L232.397 174.528L230.941 176.068V178H229.765ZM240.265 178.168C239.565 178.168 238.959 178.009 238.445 177.692C237.941 177.375 237.549 176.927 237.269 176.348C236.999 175.76 236.863 175.074 236.863 174.29C236.863 173.506 236.999 172.825 237.269 172.246C237.549 171.667 237.937 171.219 238.431 170.902C238.935 170.575 239.528 170.412 240.209 170.412C240.853 170.412 241.423 170.566 241.917 170.874C242.412 171.173 242.795 171.611 243.065 172.19C243.345 172.769 243.485 173.473 243.485 174.304V174.654H238.095C238.142 175.447 238.352 176.045 238.725 176.446C239.108 176.847 239.621 177.048 240.265 177.048C240.751 177.048 241.147 176.936 241.455 176.712C241.773 176.479 241.992 176.175 242.113 175.802L243.373 175.9C243.177 176.563 242.804 177.109 242.253 177.538C241.712 177.958 241.049 178.168 240.265 178.168ZM238.095 173.618H242.197C242.141 172.899 241.931 172.372 241.567 172.036C241.213 171.7 240.76 171.532 240.209 171.532C239.64 171.532 239.169 171.709 238.795 172.064C238.431 172.409 238.198 172.927 238.095 173.618ZM245.2 178V170.58H246.278L246.32 172.47L246.18 172.344C246.274 171.905 246.437 171.546 246.67 171.266C246.904 170.977 247.184 170.762 247.51 170.622C247.846 170.482 248.206 170.412 248.588 170.412C249.158 170.412 249.624 170.538 249.988 170.79C250.362 171.042 250.637 171.383 250.814 171.812C251.001 172.232 251.094 172.703 251.094 173.226V178H249.918V173.562C249.918 173.105 249.862 172.722 249.75 172.414C249.648 172.097 249.48 171.859 249.246 171.7C249.013 171.532 248.71 171.448 248.336 171.448C247.767 171.448 247.296 171.63 246.922 171.994C246.558 172.349 246.376 172.871 246.376 173.562V178H245.2ZM255.874 178.168C255.211 178.168 254.647 178.061 254.18 177.846C253.723 177.631 253.363 177.337 253.102 176.964C252.85 176.581 252.705 176.147 252.668 175.662L253.9 175.578C253.975 176.026 254.166 176.385 254.474 176.656C254.782 176.917 255.249 177.048 255.874 177.048C256.378 177.048 256.779 176.969 257.078 176.81C257.386 176.642 257.54 176.376 257.54 176.012C257.54 175.816 257.493 175.653 257.4 175.522C257.307 175.391 257.125 175.279 256.854 175.186C256.583 175.083 256.182 174.985 255.65 174.892C254.941 174.761 254.381 174.603 253.97 174.416C253.569 174.22 253.279 173.982 253.102 173.702C252.934 173.413 252.85 173.072 252.85 172.68C252.85 172.017 253.093 171.476 253.578 171.056C254.063 170.627 254.754 170.412 255.65 170.412C256.257 170.412 256.765 170.524 257.176 170.748C257.596 170.963 257.923 171.252 258.156 171.616C258.399 171.971 258.557 172.363 258.632 172.792L257.4 172.876C257.344 172.615 257.241 172.386 257.092 172.19C256.943 171.985 256.747 171.826 256.504 171.714C256.261 171.593 255.972 171.532 255.636 171.532C255.104 171.532 254.712 171.635 254.46 171.84C254.208 172.045 254.082 172.307 254.082 172.624C254.082 172.867 254.138 173.067 254.25 173.226C254.371 173.375 254.563 173.501 254.824 173.604C255.085 173.697 255.435 173.781 255.874 173.856C256.63 173.987 257.218 174.145 257.638 174.332C258.058 174.519 258.352 174.747 258.52 175.018C258.688 175.289 258.772 175.62 258.772 176.012C258.772 176.469 258.641 176.861 258.38 177.188C258.128 177.505 257.783 177.748 257.344 177.916C256.915 178.084 256.425 178.168 255.874 178.168Z" fill="#7B7481"/>
<path d="M263.37 196.356C260.719 196.514 257.33 195.287 254.069 193.71C251.537 192.484 248.999 191.277 245.94 190.899C241.416 190.341 237.764 191.521 234.725 194.025C233.869 194.733 233.044 195.472 232.12 196.124C230.48 197.284 228.551 197.61 226.384 197.139C223.413 196.494 221.329 194.882 219.178 193.345C217.3 192.004 215.65 190.479 213.488 189.37C207.484 186.299 200.922 187.432 197.255 192.185C196.589 193.046 195.991 193.942 195.248 194.764C192.999 197.264 189.765 197.587 186.69 195.645C185.194 194.701 184.049 193.526 182.883 192.358C180.644 190.113 177.978 188.34 174.263 187.66C170.183 186.913 167.109 187.821 164.772 190.459C163.23 192.197 161.914 194.068 159.459 195.236C155.992 196.879 149.73 196.313 146.908 194.048C146.717 193.895 146.527 193.726 146.398 193.541C146.191 193.235 145.799 192.873 146.124 192.558C146.506 192.189 146.986 192.547 147.388 192.669C149.374 193.258 151.427 193.6 153.552 193.628C155.848 193.659 157.762 193.018 159.113 191.548C159.732 190.876 160.403 190.223 160.913 189.504C164.854 183.992 171.854 183.547 177.699 185.242C181.155 186.244 183.688 188.12 185.978 190.231C186.963 191.139 187.866 192.098 189.022 192.893C190.414 193.856 191.023 193.809 191.998 192.61C192.808 191.607 193.479 190.534 194.34 189.563C199.55 183.697 209.64 182.635 217.166 187.109C219.503 188.497 221.442 190.207 223.686 191.67C223.97 191.855 224.233 192.063 224.517 192.248C227.467 194.151 228.288 194.111 230.815 191.961C236.613 187.031 244.532 185.824 252.367 188.713C253.925 189.287 255.509 189.873 256.901 190.64C260.688 192.72 264.923 192.838 269.287 192.437C273.052 192.091 276.798 191.607 280.61 191.662C281.1 191.67 281.77 191.517 281.961 192C282.178 192.566 281.44 192.692 280.966 192.865C275.812 194.721 270.53 196.242 263.365 196.352L263.37 196.356Z" fill="#DFDCD8"/>
<path d="M142.213 903.615C141.326 903.615 140.547 903.41 139.875 902.999C139.203 902.579 138.68 901.982 138.307 901.207C137.934 900.432 137.747 899.508 137.747 898.435C137.747 897.362 137.934 896.438 138.307 895.663C138.68 894.879 139.203 894.277 139.875 893.857C140.547 893.437 141.326 893.227 142.213 893.227C143.417 893.227 144.35 893.53 145.013 894.137C145.676 894.744 146.11 895.57 146.315 896.615L145.041 896.699C144.901 895.99 144.602 895.43 144.145 895.019C143.688 894.608 143.044 894.403 142.213 894.403C141.578 894.403 141.018 894.566 140.533 894.893C140.057 895.21 139.684 895.672 139.413 896.279C139.142 896.876 139.007 897.595 139.007 898.435C139.007 899.275 139.142 899.994 139.413 900.591C139.684 901.188 140.057 901.646 140.533 901.963C141.018 902.28 141.578 902.439 142.213 902.439C143.081 902.439 143.753 902.215 144.229 901.767C144.705 901.31 145.004 900.694 145.125 899.919L146.399 900.003C146.278 900.722 146.04 901.352 145.685 901.893C145.33 902.434 144.859 902.859 144.271 903.167C143.692 903.466 143.006 903.615 142.213 903.615ZM151.074 903.559C150.393 903.559 149.795 903.4 149.282 903.083C148.769 902.766 148.372 902.318 148.092 901.739C147.812 901.151 147.672 900.465 147.672 899.681C147.672 898.888 147.812 898.202 148.092 897.623C148.372 897.044 148.769 896.596 149.282 896.279C149.795 895.962 150.393 895.803 151.074 895.803C151.755 895.803 152.348 895.962 152.852 896.279C153.365 896.596 153.762 897.044 154.042 897.623C154.322 898.202 154.462 898.888 154.462 899.681C154.462 900.465 154.322 901.151 154.042 901.739C153.762 902.318 153.365 902.766 152.852 903.083C152.348 903.4 151.755 903.559 151.074 903.559ZM151.074 902.439C151.755 902.439 152.283 902.196 152.656 901.711C153.039 901.216 153.23 900.54 153.23 899.681C153.23 898.822 153.039 898.15 152.656 897.665C152.283 897.17 151.755 896.923 151.074 896.923C150.393 896.923 149.861 897.17 149.478 897.665C149.095 898.15 148.904 898.822 148.904 899.681C148.904 900.54 149.095 901.216 149.478 901.711C149.861 902.196 150.393 902.439 151.074 902.439ZM156.173 903.391V895.971H157.251L157.293 897.861L157.153 897.735C157.247 897.296 157.41 896.937 157.643 896.657C157.877 896.368 158.157 896.153 158.483 896.013C158.819 895.873 159.179 895.803 159.561 895.803C160.131 895.803 160.597 895.929 160.961 896.181C161.335 896.433 161.61 896.774 161.787 897.203C161.974 897.623 162.067 898.094 162.067 898.617V903.391H160.891V898.953C160.891 898.496 160.835 898.113 160.723 897.805C160.621 897.488 160.453 897.25 160.219 897.091C159.986 896.923 159.683 896.839 159.309 896.839C158.74 896.839 158.269 897.021 157.895 897.385C157.531 897.74 157.349 898.262 157.349 898.953V903.391H156.173ZM166.6 903.391C165.928 903.391 165.429 903.237 165.102 902.929C164.785 902.621 164.626 902.14 164.626 901.487V894.235H165.802V901.459C165.802 901.795 165.877 902.028 166.026 902.159C166.175 902.29 166.404 902.355 166.712 902.355H167.776V903.391H166.6ZM163.534 897.007V895.971H167.776V897.007H163.534ZM169.476 903.391V895.971H170.512L170.568 897.847L170.456 897.805C170.549 897.17 170.75 896.708 171.058 896.419C171.375 896.12 171.795 895.971 172.318 895.971H173.046V897.091H172.332C171.959 897.091 171.646 897.161 171.394 897.301C171.151 897.432 170.965 897.632 170.834 897.903C170.713 898.164 170.652 898.5 170.652 898.911V903.391H169.476ZM176.442 903.559C175.676 903.559 175.065 903.382 174.608 903.027C174.16 902.672 173.936 902.178 173.936 901.543C173.936 900.908 174.122 900.409 174.496 900.045C174.869 899.681 175.462 899.424 176.274 899.275L178.906 898.785C178.906 898.16 178.756 897.693 178.458 897.385C178.168 897.077 177.73 896.923 177.142 896.923C176.628 896.923 176.222 897.04 175.924 897.273C175.625 897.497 175.42 897.824 175.308 898.253L174.062 898.155C174.202 897.455 174.538 896.89 175.07 896.461C175.611 896.022 176.302 895.803 177.142 895.803C178.094 895.803 178.822 896.074 179.326 896.615C179.83 897.147 180.082 897.884 180.082 898.827V901.893C180.082 902.061 180.11 902.182 180.166 902.257C180.231 902.322 180.334 902.355 180.474 902.355H180.768V903.391C180.73 903.4 180.67 903.405 180.586 903.405C180.502 903.414 180.413 903.419 180.32 903.419C179.984 903.419 179.708 903.368 179.494 903.265C179.288 903.153 179.139 902.985 179.046 902.761C178.952 902.528 178.906 902.224 178.906 901.851L179.046 901.879C178.98 902.196 178.822 902.486 178.57 902.747C178.318 902.999 178.005 903.2 177.632 903.349C177.258 903.489 176.862 903.559 176.442 903.559ZM176.554 902.523C177.048 902.523 177.468 902.43 177.814 902.243C178.168 902.047 178.439 901.786 178.626 901.459C178.812 901.123 178.906 900.75 178.906 900.339V899.807L176.498 900.255C175.994 900.348 175.644 900.493 175.448 900.689C175.261 900.876 175.168 901.123 175.168 901.431C175.168 901.776 175.289 902.047 175.532 902.243C175.784 902.43 176.124 902.523 176.554 902.523ZM185.185 903.559C184.495 903.559 183.893 903.4 183.379 903.083C182.875 902.766 182.483 902.318 182.203 901.739C181.923 901.151 181.783 900.465 181.783 899.681C181.783 898.897 181.923 898.216 182.203 897.637C182.483 897.058 182.875 896.61 183.379 896.293C183.893 895.966 184.495 895.803 185.185 895.803C185.755 895.803 186.259 895.906 186.697 896.111C187.145 896.307 187.509 896.596 187.789 896.979C188.069 897.362 188.251 897.828 188.335 898.379L187.103 898.463C187.019 897.968 186.805 897.59 186.459 897.329C186.114 897.058 185.689 896.923 185.185 896.923C184.504 896.923 183.972 897.17 183.589 897.665C183.207 898.15 183.015 898.822 183.015 899.681C183.015 900.54 183.207 901.216 183.589 901.711C183.972 902.196 184.504 902.439 185.185 902.439C185.689 902.439 186.114 902.299 186.459 902.019C186.805 901.739 187.019 901.319 187.103 900.759L188.335 900.843C188.251 901.394 188.069 901.874 187.789 902.285C187.509 902.686 187.145 902.999 186.697 903.223C186.259 903.447 185.755 903.559 185.185 903.559ZM192.262 903.391C191.59 903.391 191.091 903.237 190.764 902.929C190.447 902.621 190.288 902.14 190.288 901.487V894.235H191.464V901.459C191.464 901.795 191.539 902.028 191.688 902.159C191.838 902.29 192.066 902.355 192.374 902.355H193.438V903.391H192.262ZM189.196 897.007V895.971H193.438V897.007H189.196ZM197.805 903.559C197.123 903.559 196.526 903.4 196.013 903.083C195.499 902.766 195.103 902.318 194.823 901.739C194.543 901.151 194.403 900.465 194.403 899.681C194.403 898.888 194.543 898.202 194.823 897.623C195.103 897.044 195.499 896.596 196.013 896.279C196.526 895.962 197.123 895.803 197.805 895.803C198.486 895.803 199.079 895.962 199.583 896.279C200.096 896.596 200.493 897.044 200.773 897.623C201.053 898.202 201.193 898.888 201.193 899.681C201.193 900.465 201.053 901.151 200.773 901.739C200.493 902.318 200.096 902.766 199.583 903.083C199.079 903.4 198.486 903.559 197.805 903.559ZM197.805 902.439C198.486 902.439 199.013 902.196 199.387 901.711C199.769 901.216 199.961 900.54 199.961 899.681C199.961 898.822 199.769 898.15 199.387 897.665C199.013 897.17 198.486 896.923 197.805 896.923C197.123 896.923 196.591 897.17 196.209 897.665C195.826 898.15 195.635 898.822 195.635 899.681C195.635 900.54 195.826 901.216 196.209 901.711C196.591 902.196 197.123 902.439 197.805 902.439ZM202.904 903.391V895.971H203.94L203.996 897.847L203.884 897.805C203.977 897.17 204.178 896.708 204.486 896.419C204.803 896.12 205.223 895.971 205.746 895.971H206.474V897.091H205.76C205.386 897.091 205.074 897.161 204.822 897.301C204.579 897.432 204.392 897.632 204.262 897.903C204.14 898.164 204.08 898.5 204.08 898.911V903.391H202.904ZM210.57 903.559C209.907 903.559 209.342 903.452 208.876 903.237C208.418 903.022 208.059 902.728 207.798 902.355C207.546 901.972 207.401 901.538 207.364 901.053L208.596 900.969C208.67 901.417 208.862 901.776 209.17 902.047C209.478 902.308 209.944 902.439 210.57 902.439C211.074 902.439 211.475 902.36 211.774 902.201C212.082 902.033 212.236 901.767 212.236 901.403C212.236 901.207 212.189 901.044 212.096 900.913C212.002 900.782 211.82 900.67 211.55 900.577C211.279 900.474 210.878 900.376 210.346 900.283C209.636 900.152 209.076 899.994 208.666 899.807C208.264 899.611 207.975 899.373 207.798 899.093C207.63 898.804 207.546 898.463 207.546 898.071C207.546 897.408 207.788 896.867 208.274 896.447C208.759 896.018 209.45 895.803 210.346 895.803C210.952 895.803 211.461 895.915 211.872 896.139C212.292 896.354 212.618 896.643 212.852 897.007C213.094 897.362 213.253 897.754 213.328 898.183L212.096 898.267C212.04 898.006 211.937 897.777 211.788 897.581C211.638 897.376 211.442 897.217 211.2 897.105C210.957 896.984 210.668 896.923 210.332 896.923C209.8 896.923 209.408 897.026 209.156 897.231C208.904 897.436 208.778 897.698 208.778 898.015C208.778 898.258 208.834 898.458 208.946 898.617C209.067 898.766 209.258 898.892 209.52 898.995C209.781 899.088 210.131 899.172 210.57 899.247C211.326 899.378 211.914 899.536 212.334 899.723C212.754 899.91 213.048 900.138 213.216 900.409C213.384 900.68 213.468 901.011 213.468 901.403C213.468 901.86 213.337 902.252 213.076 902.579C212.824 902.896 212.478 903.139 212.04 903.307C211.61 903.475 211.12 903.559 210.57 903.559Z" fill="#7B7481"/>
<path d="M176.489 929.306C182.377 930.108 187.898 930.851 193.419 931.608C194.008 931.688 194.595 931.838 195.18 931.967C195.473 932.028 195.734 932.209 195.718 932.67C195.702 933.137 195.414 933.237 195.134 933.287C194.955 933.32 194.769 933.332 194.589 933.338C178.409 933.838 162.253 933.292 146.173 929.695C139.113 928.118 132.159 925.925 125.669 921.41C123.313 919.771 121.088 917.849 119.144 915.374C113.893 908.681 113.563 900.237 118.272 893.081C121.503 888.172 125.592 884.961 129.891 882.232C138.651 876.665 147.984 873.821 157.509 871.907C166.252 870.155 175.072 869.496 183.919 869.709C196.249 870.006 208.52 871.365 220.458 876.521C224.463 878.251 228.312 880.508 231.609 884.261C234.117 887.109 235.95 890.549 235.994 895.263C236.026 898.721 235.029 901.638 233.48 904.209C230.051 909.905 225.466 913.291 220.676 916.195C211.873 921.526 202.602 924.73 193.108 926.86C187.73 928.066 182.309 928.833 176.493 929.298L176.489 929.306ZM149.605 925.492C148.725 923.872 147.9 922.446 147.996 920.441C148.012 920.134 147.981 919.772 148.248 919.645C148.545 919.511 148.646 919.864 148.725 920.147C149.538 923.039 151.388 923.842 153.274 924.532C157.246 925.984 161.307 926.226 165.353 926.323C170.273 926.435 175.17 925.948 180.062 925.294C188.093 924.226 196.006 922.408 203.772 919.52C211.547 916.626 219.144 913.101 225.925 906.951C227.933 905.127 229.83 903.097 231.18 900.26C233.065 896.312 232.747 892.701 230.279 889.322C228.172 886.427 225.618 884.564 222.929 883.039C217.403 879.918 211.633 878.22 205.78 877.096C194.846 874.992 183.894 874.466 172.904 875.217C165.799 875.7 158.746 876.571 151.764 878.313C143.144 880.465 134.748 883.595 127.078 889.542C123.899 892 120.903 894.83 119.087 899.418C117.892 902.424 118.002 905.462 119.364 908.414C120.854 911.641 123.053 913.731 125.39 915.566C131.035 919.981 137.182 922.226 143.435 923.98C145.484 924.554 147.549 924.995 149.606 925.499L149.605 925.492Z" fill="#DFDCD8"/>
</svg>
