<svg width="1728" height="1070" viewBox="0 0 1728 1070" fill="none" xmlns="http://www.w3.org/2000/svg">
<path d="M82 89C82 71.3269 96.3269 57 114 57C131.673 57 146 71.3269 146 89C146 106.673 131.673 121 114 121C96.3269 121 82 106.673 82 89Z" fill="#F0EDE7"/>
<path d="M107.912 92.1173C107.912 93.3314 106.92 94.3233 105.706 94.3233C104.492 94.3233 103.5 93.3314 103.5 92.1173C103.5 90.9031 104.492 89.9113 105.706 89.9113H107.912V92.1173Z" fill="#E01E5A"/>
<path d="M109.024 92.1173C109.024 90.9031 110.015 89.9113 111.23 89.9113C112.444 89.9113 113.436 90.9031 113.436 92.1173V97.6409C113.436 98.8551 112.444 99.8469 111.23 99.8469C110.015 99.8469 109.024 98.8551 109.024 97.6409V92.1173Z" fill="#E01E5A"/>
<path d="M111.23 83.259C110.015 83.259 109.024 82.2671 109.024 81.0529C109.024 79.8388 110.015 78.8469 111.23 78.8469C112.444 78.8469 113.436 79.8388 113.436 81.0529V83.259H111.23Z" fill="#36C5F0"/>
<path d="M111.23 84.3705C112.444 84.3705 113.436 85.3623 113.436 86.5765C113.436 87.7907 112.444 88.7825 111.23 88.7825H105.706C104.492 88.7825 103.5 87.7907 103.5 86.5765C103.5 85.3623 104.492 84.3705 105.706 84.3705H111.23Z" fill="#36C5F0"/>
<path d="M120.088 86.5765C120.088 85.3623 121.08 84.3705 122.294 84.3705C123.508 84.3705 124.5 85.3623 124.5 86.5765C124.5 87.7907 123.508 88.7825 122.294 88.7825H120.088V86.5765Z" fill="#2EB67D"/>
<path d="M118.976 86.5766C118.976 87.7907 117.985 88.7826 116.77 88.7826C115.556 88.7826 114.564 87.7907 114.564 86.5766V81.0529C114.564 79.8388 115.556 78.8469 116.77 78.8469C117.985 78.8469 118.976 79.8388 118.976 81.0529V86.5766Z" fill="#2EB67D"/>
<path d="M116.77 95.4348C117.985 95.4348 118.976 96.4267 118.976 97.6408C118.976 98.855 117.985 99.8469 116.77 99.8469C115.556 99.8469 114.564 98.855 114.564 97.6408V95.4348H116.77Z" fill="#ECB22E"/>
<path d="M116.77 94.3233C115.556 94.3233 114.564 93.3314 114.564 92.1173C114.564 90.9031 115.556 89.9113 116.77 89.9113H122.294C123.508 89.9113 124.5 90.9031 124.5 92.1173C124.5 93.3314 123.508 94.3233 122.294 94.3233H116.77Z" fill="#ECB22E"/>
<path d="M82 336C82 318.327 96.3269 304 114 304C131.673 304 146 318.327 146 336C146 353.673 131.673 368 114 368C96.3269 368 82 353.673 82 336Z" fill="#F0EDE7"/>
<g clip-path="url(#clip0_31_287)">
<path fill-rule="evenodd" clipRule="evenodd" d="M114.01 324.347C107.369 324.347 102 329.755 102 336.446C102 341.794 105.44 346.322 110.212 347.924C110.809 348.044 111.027 347.664 111.027 347.343C111.027 347.063 111.008 346.101 111.008 345.1C107.667 345.821 106.971 343.657 106.971 343.657C106.434 342.255 105.639 341.895 105.639 341.895C104.545 341.154 105.718 341.154 105.718 341.154C106.931 341.234 107.568 342.395 107.568 342.395C108.641 344.238 110.371 343.718 111.067 343.397C111.166 342.616 111.485 342.075 111.823 341.775C109.158 341.494 106.355 340.452 106.355 335.805C106.355 334.483 106.832 333.401 107.587 332.56C107.468 332.26 107.05 331.017 107.707 329.355C107.707 329.355 108.721 329.034 111.007 330.597C111.986 330.332 112.996 330.197 114.01 330.196C115.024 330.196 116.058 330.336 117.012 330.597C119.299 329.034 120.313 329.355 120.313 329.355C120.969 331.017 120.552 332.26 120.432 332.56C121.208 333.401 121.665 334.483 121.665 335.805C121.665 340.452 118.862 341.474 116.177 341.775C116.615 342.155 116.992 342.876 116.992 344.018C116.992 345.64 116.973 346.943 116.973 347.343C116.973 347.664 117.192 348.044 117.788 347.924C122.56 346.321 126 341.794 126 336.446C126.02 329.755 120.631 324.347 114.01 324.347Z" fill="#0F1217"/>
</g>
<path d="M371 149C371 131.327 385.327 117 403 117C420.673 117 435 131.327 435 149C435 166.673 420.673 181 403 181C385.327 181 371 166.673 371 149Z" fill="#F0EDE7"/>
<g clip-path="url(#clip1_31_287)">
<path d="M415 149.617C415 148.827 414.928 148.077 414.806 147.347H403.26V151.857H409.871C409.575 153.337 408.706 154.587 407.419 155.437V158.437H411.363C413.672 156.347 415 153.267 415 149.617V149.617Z" fill="#4285F4"/>
<path d="M403.26 161.347C406.571 161.347 409.339 160.267 411.362 158.437L407.419 155.437C406.315 156.157 404.915 156.597 403.26 156.597C400.062 156.597 397.355 154.487 396.384 151.637H392.318V154.727C394.331 158.647 398.468 161.347 403.26 161.347V161.347Z" fill="#34A853"/>
<path d="M396.384 151.637C396.129 150.917 395.996 150.147 395.996 149.347C395.996 148.547 396.139 147.777 396.384 147.057V143.967H392.318C391.48 145.587 391 147.407 391 149.347C391 151.287 391.48 153.107 392.318 154.727L396.384 151.637Z" fill="#FBBC05"/>
<path d="M403.26 142.097C405.069 142.097 406.683 142.707 407.96 143.897L411.454 140.477C409.339 138.537 406.571 137.347 403.26 137.347C398.468 137.347 394.331 140.047 392.318 143.967L396.384 147.057C397.355 144.207 400.062 142.097 403.26 142.097V142.097Z" fill="#EA4335"/>
</g>
<path d="M1605 268.347C1605 248.465 1621.12 232.347 1641 232.347C1660.88 232.347 1677 248.465 1677 268.347C1677 288.229 1660.88 304.347 1641 304.347C1621.12 304.347 1605 288.229 1605 268.347Z" fill="#F0EDE7"/>
<path d="M1651.24 269.755C1651.24 270.004 1651.15 270.244 1650.97 270.42C1650.8 270.597 1650.56 270.696 1650.31 270.696C1650.07 270.696 1649.83 270.597 1649.65 270.42C1649.48 270.244 1649.38 270.004 1649.38 269.755V261.347C1649.38 261.097 1649.48 260.858 1649.65 260.682C1649.83 260.505 1650.07 260.406 1650.31 260.406C1650.56 260.406 1650.8 260.505 1650.97 260.682C1651.15 260.858 1651.24 261.097 1651.24 261.347V269.755ZM1650.92 275.58C1650.8 275.705 1647.33 278.621 1640.98 278.621C1634.63 278.621 1631.19 275.72 1631.05 275.596C1630.96 275.517 1630.88 275.421 1630.82 275.313C1630.77 275.205 1630.74 275.086 1630.73 274.965C1630.72 274.844 1630.73 274.721 1630.77 274.605C1630.8 274.489 1630.86 274.382 1630.94 274.289C1631.1 274.101 1631.33 273.985 1631.57 273.966C1631.82 273.947 1632.06 274.027 1632.25 274.188C1632.3 274.227 1635.4 276.762 1640.98 276.762C1646.56 276.762 1649.67 274.211 1649.7 274.188C1649.89 274.028 1650.14 273.95 1650.38 273.969C1650.63 273.987 1650.86 274.102 1651.02 274.289C1651.18 274.474 1651.26 274.715 1651.24 274.958C1651.22 275.201 1651.11 275.427 1650.93 275.588L1650.92 275.58ZM1630.72 261.347C1630.73 261.097 1630.84 260.862 1631.03 260.694C1631.21 260.527 1631.45 260.44 1631.7 260.453C1631.93 260.466 1632.15 260.564 1632.31 260.73C1632.47 260.895 1632.57 261.115 1632.58 261.347V269.739C1632.58 269.989 1632.48 270.228 1632.31 270.405C1632.13 270.581 1631.9 270.68 1631.65 270.68C1631.4 270.68 1631.16 270.581 1630.99 270.405C1630.82 270.228 1630.72 269.989 1630.72 269.739V261.347ZM1635.39 259.48C1635.4 259.23 1635.51 258.995 1635.7 258.828C1635.88 258.66 1636.13 258.573 1636.37 258.586C1636.6 258.599 1636.82 258.698 1636.98 258.863C1637.14 259.028 1637.24 259.248 1637.25 259.48V271.925C1637.25 272.174 1637.15 272.414 1636.98 272.59C1636.8 272.767 1636.57 272.866 1636.32 272.866C1636.07 272.866 1635.84 272.767 1635.66 272.59C1635.49 272.414 1635.39 272.174 1635.39 271.925V259.48ZM1640.08 259.014C1640.08 258.764 1640.18 258.525 1640.36 258.348C1640.53 258.172 1640.77 258.073 1641.02 258.073C1641.26 258.073 1641.5 258.172 1641.67 258.348C1641.85 258.525 1641.95 258.764 1641.95 259.014V272.547C1641.95 272.796 1641.85 273.036 1641.67 273.212C1641.5 273.389 1641.26 273.488 1641.02 273.488C1640.77 273.488 1640.53 273.389 1640.36 273.212C1640.18 273.036 1640.08 272.796 1640.08 272.547V259.014ZM1644.7 259.48C1644.7 259.231 1644.8 258.991 1644.97 258.815C1645.15 258.638 1645.39 258.539 1645.63 258.539C1645.88 258.539 1646.12 258.638 1646.29 258.815C1646.47 258.991 1646.56 259.231 1646.56 259.48V271.925C1646.56 272.174 1646.47 272.414 1646.29 272.59C1646.12 272.767 1645.88 272.866 1645.63 272.866C1645.39 272.866 1645.15 272.767 1644.97 272.59C1644.8 272.414 1644.7 272.174 1644.7 271.925V259.48ZM1651.5 254.347H1630.5C1630.04 254.344 1629.59 254.432 1629.17 254.606C1628.74 254.781 1628.36 255.038 1628.03 255.363C1627.71 255.688 1627.45 256.075 1627.27 256.501C1627.09 256.927 1627 257.385 1627 257.847V278.847C1627 279.309 1627.09 279.767 1627.27 280.193C1627.45 280.619 1627.71 281.006 1628.03 281.331C1628.36 281.656 1628.74 281.913 1629.17 282.087C1629.59 282.262 1630.04 282.35 1630.5 282.347H1651.5C1651.95 282.35 1652.41 282.262 1652.83 282.088C1653.25 281.914 1653.64 281.658 1653.96 281.334C1654.29 281.009 1654.55 280.624 1654.73 280.198C1654.9 279.773 1655 279.316 1655 278.855V257.847C1655 257.385 1654.91 256.929 1654.73 256.503C1654.55 256.077 1654.29 255.691 1653.97 255.366C1653.65 255.041 1653.26 254.783 1652.84 254.609C1652.42 254.434 1651.96 254.345 1651.51 254.347" fill="#0F1217"/>
<path d="M1438 391C1438 373.327 1452.33 359 1470 359C1487.67 359 1502 373.327 1502 391C1502 408.673 1487.67 423 1470 423C1452.33 423 1438 408.673 1438 391Z" fill="#F0EDE7"/>
<path d="M1481.92 385.134C1481.81 384.739 1481.56 384.397 1481.22 384.173C1480.88 383.949 1480.46 383.859 1480.06 383.92C1479.99 383.93 1479.93 383.944 1479.86 383.962C1476.92 384.767 1473.48 389.183 1472.42 390.616V390.628L1472.28 390.821C1472.2 390.348 1471.98 389.909 1471.65 389.564C1471.32 389.219 1470.89 388.985 1470.42 388.893L1471.52 388.503C1471.76 388.425 1471.95 388.268 1472.08 388.058C1472.2 387.849 1472.25 387.601 1472.21 387.36C1472.17 387.119 1472.05 386.9 1471.86 386.743C1471.67 386.586 1471.44 386.5 1471.19 386.502H1468.74C1468.5 386.498 1468.26 386.582 1468.07 386.739C1467.88 386.896 1467.75 387.116 1467.71 387.359C1467.67 387.601 1467.72 387.85 1467.85 388.06C1467.97 388.27 1468.17 388.427 1468.41 388.503L1469.51 388.893C1469.05 388.983 1468.64 389.206 1468.31 389.532C1467.98 389.859 1467.76 390.275 1467.67 390.728L1467.59 390.621L1467.59 390.611C1466.53 389.183 1463.08 384.767 1460.14 383.962C1460.07 383.944 1460.01 383.93 1459.94 383.92C1459.54 383.859 1459.12 383.949 1458.78 384.173C1458.44 384.397 1458.19 384.739 1458.08 385.134C1457.97 385.638 1457.97 386.162 1458.1 386.662C1458.46 388.211 1459.73 390.017 1461.63 391.018H1461.61L1462.47 391.45C1462.3 391.489 1462.13 391.539 1461.96 391.598C1461.77 391.665 1461.58 391.75 1461.41 391.852C1461.2 391.973 1461.04 392.163 1460.96 392.387C1460.88 392.612 1460.88 392.858 1460.95 393.084C1460.98 393.148 1461.01 393.21 1461.04 393.269C1461.37 393.821 1462.18 394.27 1463.14 394.408C1464.72 394.643 1466.73 394.086 1467.74 391.907C1467.85 392.234 1468.02 392.533 1468.26 392.783C1468.5 393.033 1468.79 393.227 1469.11 393.353C1468.11 393.336 1466.98 393.436 1466.61 394.297C1466.49 394.605 1466.43 394.934 1466.44 395.265H1473.48C1473.48 394.652 1473.34 394.02 1472.76 393.686C1472.17 393.353 1471.42 393.369 1470.73 393.383C1471.08 393.259 1471.4 393.051 1471.66 392.777C1471.92 392.503 1472.11 392.171 1472.21 391.808C1473.21 394.073 1475.25 394.653 1476.85 394.413C1477.82 394.268 1478.63 393.826 1478.95 393.274C1479.02 393.157 1479.07 393.028 1479.09 392.893C1479.11 392.758 1479.1 392.621 1479.07 392.489C1479.03 392.357 1478.97 392.233 1478.89 392.125C1478.81 392.016 1478.7 391.925 1478.59 391.857C1478.41 391.755 1478.23 391.67 1478.04 391.603C1477.87 391.544 1477.7 391.494 1477.52 391.455L1478.38 391.023H1478.37C1480.27 390.022 1481.54 388.213 1481.89 386.664C1482.03 386.164 1482.04 385.639 1481.92 385.134Z" fill="#111111"/>
<path d="M1466.5 396.268C1466.56 396.799 1466.67 397.323 1466.84 397.83H1473.05C1473.23 397.275 1473.35 396.703 1473.41 396.124H1466.49C1466.49 396.173 1466.5 396.221 1466.5 396.268Z" fill="#111111"/>
<path d="M1468.9 400.552C1469.15 400.705 1469.69 401.052 1470.02 400.981C1471.33 400.67 1472.18 399.781 1472.72 398.682H1467.18C1467.57 399.453 1468.16 400.1 1468.9 400.552Z" fill="#111111"/>
<path d="M1471.24 384.346L1470.45 384.939L1469.96 383.847L1469.47 384.939L1468.68 384.346V385.905H1471.24V384.346Z" fill="#111111"/>
<path d="M213 563C213 545.327 227.327 531 245 531C262.673 531 277 545.327 277 563C277 580.673 262.673 595 245 595C227.327 595 213 580.673 213 563Z" fill="#F0EDE7"/>
<path d="M249.148 561.673H254.572C255.085 561.673 255.5 562.088 255.5 562.601V567.541C255.5 569.425 253.973 570.952 252.09 570.952H252.074C250.19 570.952 248.663 569.425 248.663 567.542V562.158C248.663 561.89 248.88 561.673 249.148 561.673Z" fill="#5059C9"/>
<path d="M252.814 560.696C254.028 560.696 255.012 559.712 255.012 558.498C255.012 557.284 254.028 556.3 252.814 556.3C251.6 556.3 250.616 557.284 250.616 558.498C250.616 559.712 251.6 560.696 252.814 560.696Z" fill="#5059C9"/>
<path d="M245.977 560.696C247.73 560.696 249.151 559.275 249.151 557.521C249.151 555.768 247.73 554.347 245.977 554.347C244.224 554.347 242.802 555.768 242.802 557.521C242.802 559.275 244.224 560.696 245.977 560.696Z" fill="#7B83EB"/>
<path d="M250.209 561.673H241.256C240.749 561.685 240.349 562.105 240.36 562.612V568.247C240.29 571.286 242.694 573.808 245.733 573.882C248.771 573.808 251.175 571.286 251.105 568.247V562.612C251.116 562.105 250.716 561.685 250.209 561.673Z" fill="#7B83EB"/>
<path opacity="0.1" d="M246.221 561.673V569.57C246.219 569.932 245.999 570.257 245.664 570.395C245.558 570.44 245.443 570.463 245.327 570.463H240.79C240.727 570.302 240.668 570.141 240.619 569.975C240.448 569.415 240.361 568.832 240.36 568.246V562.61C240.349 562.105 240.749 561.685 241.254 561.673H246.221Z" fill="black"/>
<path opacity="0.2" d="M245.733 561.673V570.058C245.733 570.174 245.709 570.288 245.664 570.395C245.526 570.73 245.201 570.949 244.839 570.952H241.02C240.937 570.791 240.859 570.629 240.79 570.463C240.722 570.297 240.668 570.141 240.619 569.975C240.448 569.415 240.361 568.832 240.36 568.246V562.61C240.349 562.105 240.749 561.685 241.254 561.673H245.733Z" fill="black"/>
<path opacity="0.2" d="M245.733 561.673V569.081C245.729 569.573 245.331 569.971 244.839 569.975H240.619C240.448 569.415 240.361 568.832 240.36 568.246V562.61C240.349 562.105 240.749 561.685 241.254 561.673H245.733Z" fill="black"/>
<path opacity="0.2" d="M245.244 561.673V569.081C245.24 569.573 244.843 569.971 244.35 569.975H240.619C240.448 569.415 240.361 568.832 240.36 568.246V562.61C240.349 562.105 240.749 561.685 241.254 561.673H245.244Z" fill="black"/>
<path opacity="0.1" d="M246.221 559.148V560.686C246.138 560.691 246.06 560.696 245.977 560.696C245.894 560.696 245.816 560.691 245.733 560.686C245.568 560.675 245.404 560.649 245.244 560.608C244.255 560.374 243.438 559.68 243.047 558.742C242.979 558.585 242.927 558.421 242.89 558.254H245.327C245.82 558.256 246.219 558.655 246.221 559.148Z" fill="black"/>
<path opacity="0.2" d="M245.733 559.636V560.686C245.568 560.675 245.404 560.649 245.244 560.608C244.255 560.374 243.438 559.68 243.047 558.742H244.839C245.332 558.744 245.731 559.143 245.733 559.636Z" fill="black"/>
<path opacity="0.2" d="M245.733 559.636V560.686C245.568 560.675 245.404 560.649 245.244 560.608C244.255 560.374 243.438 559.68 243.047 558.742H244.839C245.332 558.744 245.731 559.143 245.733 559.636Z" fill="black"/>
<path opacity="0.2" d="M245.244 559.636V560.608C244.255 560.374 243.438 559.68 243.047 558.742H244.35C244.843 558.744 245.242 559.143 245.244 559.636Z" fill="black"/>
<path d="M235.395 558.742H244.349C244.843 558.742 245.244 559.143 245.244 559.637V568.591C245.244 569.086 244.843 569.486 244.349 569.486H235.395C234.901 569.486 234.5 569.086 234.5 568.591V559.637C234.5 559.143 234.901 558.742 235.395 558.742Z" fill="url(#paint0_linear_31_287)"/>
<path d="M242.228 562.15H240.438V567.024H239.298V562.15H237.516V561.205H242.228V562.15Z" fill="white"/>
<path d="M301 748C301 730.327 315.327 716 333 716C350.673 716 365 730.327 365 748C365 765.673 350.673 780 333 780C315.327 780 301 765.673 301 748Z" fill="#F0EDE7"/>
<g clip-path="url(#clip2_31_287)">
<path d="M333.5 748.347C333.5 746.138 335.291 744.347 337.5 744.347C339.709 744.347 341.5 746.138 341.5 748.347C341.5 750.556 339.709 752.347 337.5 752.347C335.291 752.347 333.5 750.556 333.5 748.347Z" fill="#1ABCFE"/>
<path d="M325.5 756.347C325.5 754.138 327.291 752.347 329.5 752.347H333.5V756.347C333.5 758.556 331.709 760.347 329.5 760.347C327.291 760.347 325.5 758.556 325.5 756.347Z" fill="#0ACF83"/>
<path d="M333.5 736.347V744.347H337.5C339.709 744.347 341.5 742.556 341.5 740.347C341.5 738.138 339.709 736.347 337.5 736.347H333.5Z" fill="#FF7262"/>
<path d="M325.5 740.347C325.5 742.556 327.291 744.347 329.5 744.347H333.5V736.347H329.5C327.291 736.347 325.5 738.138 325.5 740.347Z" fill="#F24E1E"/>
<path d="M325.5 748.347C325.5 750.556 327.291 752.347 329.5 752.347H333.5V744.347H329.5C327.291 744.347 325.5 746.138 325.5 748.347Z" fill="#A259FF"/>
</g>
<path d="M1600 873C1600 855.327 1614.33 841 1632 841C1649.67 841 1664 855.327 1664 873C1664 890.673 1649.67 905 1632 905C1614.33 905 1600 890.673 1600 873Z" fill="#F0EDE7"/>
<path d="M1630.69 862.847H1621.5V872.034H1630.69V862.847Z" fill="#F25022"/>
<path d="M1642.5 862.847H1633.31V872.034H1642.5V862.847Z" fill="#7FBA00"/>
<path d="M1630.69 874.659H1621.5V883.847H1630.69V874.659Z" fill="#00A4EF"/>
<path d="M1642.5 874.659H1633.31V883.847H1642.5V874.659Z" fill="#FFB900"/>
<path d="M1355 784C1355 764.118 1371.12 748 1391 748C1410.88 748 1427 764.118 1427 784C1427 803.882 1410.88 820 1391 820C1371.12 820 1355 803.882 1355 784Z" fill="#F0EDE7"/>
<g clip-path="url(#clip3_31_287)">
<path fill-rule="evenodd" clipRule="evenodd" d="M1392.61 768.222L1391.95 776.329C1391.64 776.293 1391.32 776.276 1391 776.276C1390.6 776.276 1390.21 776.302 1389.83 776.364L1389.46 772.436C1389.45 772.311 1389.55 772.204 1389.67 772.204H1390.34L1390.02 768.231C1390.01 768.107 1390.11 768 1390.22 768H1392.4C1392.53 768 1392.62 768.107 1392.61 768.231V768.222ZM1387.11 768.622C1387.07 768.507 1386.95 768.436 1386.83 768.48L1384.79 769.227C1384.67 769.271 1384.62 769.404 1384.67 769.511L1386.33 773.138L1385.7 773.369C1385.59 773.413 1385.53 773.547 1385.59 773.653L1387.29 777.218C1387.9 776.88 1388.57 776.622 1389.27 776.462L1387.12 768.622H1387.11ZM1382.09 770.88L1386.8 777.511C1386.2 777.902 1385.66 778.364 1385.2 778.898L1382.38 776.124C1382.29 776.036 1382.3 775.893 1382.39 775.813L1382.9 775.387L1380.1 772.551C1380.01 772.462 1380.02 772.32 1380.12 772.24L1381.78 770.844C1381.88 770.764 1382.01 770.782 1382.08 770.88H1382.09ZM1378.14 774.72C1378.04 774.649 1377.9 774.684 1377.84 774.791L1376.75 776.676C1376.69 776.782 1376.74 776.916 1376.84 776.969L1380.46 778.676L1380.12 779.253C1380.1 779.279 1380.09 779.307 1380.09 779.336C1380.09 779.365 1380.09 779.395 1380.1 779.422C1380.11 779.45 1380.12 779.476 1380.14 779.497C1380.16 779.519 1380.19 779.535 1380.21 779.547L1383.81 781.191C1384.07 780.524 1384.41 779.902 1384.84 779.342L1378.14 774.72V774.72ZM1375.48 779.84C1375.5 779.716 1375.63 779.644 1375.74 779.671L1383.61 781.724C1383.41 782.391 1383.29 783.093 1383.27 783.822L1379.33 783.502C1379.3 783.5 1379.28 783.492 1379.25 783.478C1379.22 783.464 1379.2 783.445 1379.18 783.421C1379.17 783.397 1379.15 783.37 1379.15 783.341C1379.14 783.312 1379.14 783.282 1379.15 783.253L1379.26 782.596L1375.29 782.222C1375.16 782.213 1375.08 782.098 1375.1 781.973L1375.47 779.831L1375.48 779.84ZM1375.19 785.156C1375.06 785.164 1374.98 785.28 1375 785.404L1375.38 787.547C1375.4 787.671 1375.53 787.742 1375.64 787.716L1379.5 786.711L1379.62 787.369C1379.64 787.493 1379.76 787.564 1379.88 787.538L1383.68 786.489C1383.46 785.831 1383.32 785.129 1383.28 784.409L1375.18 785.156H1375.19ZM1376.45 790.791C1376.44 790.766 1376.43 790.739 1376.43 790.71C1376.42 790.682 1376.42 790.653 1376.43 790.625C1376.44 790.598 1376.46 790.572 1376.47 790.55C1376.49 790.528 1376.52 790.51 1376.54 790.498L1383.89 787.013C1384.16 787.671 1384.54 788.284 1384.98 788.836L1381.76 791.129C1381.66 791.2 1381.52 791.173 1381.46 791.067L1381.12 790.48L1377.84 792.747C1377.74 792.818 1377.6 792.782 1377.54 792.676L1376.44 790.791H1376.45ZM1385.36 789.262L1379.64 795.049C1379.55 795.138 1379.56 795.28 1379.65 795.36L1381.33 796.756C1381.42 796.836 1381.56 796.818 1381.63 796.72L1383.94 793.467L1384.46 793.902C1384.56 793.982 1384.7 793.964 1384.77 793.858L1387.01 790.604C1386.41 790.231 1385.85 789.778 1385.37 789.262H1385.36ZM1384.23 798.551C1384.2 798.541 1384.17 798.526 1384.15 798.505C1384.13 798.485 1384.12 798.461 1384.11 798.434C1384.1 798.408 1384.09 798.379 1384.09 798.35C1384.09 798.321 1384.1 798.293 1384.11 798.267L1387.5 790.871C1388.12 791.191 1388.8 791.431 1389.5 791.564L1388.5 795.387C1388.48 795.502 1388.34 795.573 1388.23 795.529L1387.6 795.298L1386.54 799.147C1386.5 799.262 1386.38 799.333 1386.26 799.289L1384.22 798.542L1384.23 798.551ZM1390.06 791.662L1389.4 799.769C1389.39 799.893 1389.49 800 1389.61 800H1391.79C1391.91 800 1392.01 799.893 1391.99 799.769L1391.67 795.796H1392.34C1392.46 795.796 1392.56 795.689 1392.55 795.564L1392.18 791.636C1391.8 791.698 1391.4 791.724 1391 791.724C1390.68 791.724 1390.37 791.707 1390.06 791.662ZM1397.91 769.716C1397.96 769.6 1397.91 769.476 1397.79 769.431L1395.75 768.684C1395.63 768.64 1395.51 768.711 1395.47 768.827L1394.41 772.676L1393.78 772.444C1393.66 772.4 1393.54 772.471 1393.5 772.587L1392.51 776.409C1393.22 776.551 1393.89 776.791 1394.51 777.102L1397.91 769.716ZM1402.37 772.942L1396.65 778.729C1396.17 778.208 1395.61 777.757 1395.01 777.387L1397.25 774.133C1397.32 774.036 1397.46 774.009 1397.56 774.089L1398.08 774.524L1400.39 771.271C1400.46 771.173 1400.6 771.156 1400.69 771.236L1402.36 772.631C1402.46 772.711 1402.46 772.853 1402.38 772.942H1402.37ZM1405.47 777.493C1405.58 777.44 1405.62 777.307 1405.56 777.2L1404.46 775.316C1404.45 775.291 1404.43 775.27 1404.4 775.253C1404.38 775.236 1404.35 775.224 1404.33 775.217C1404.3 775.21 1404.27 775.209 1404.24 775.214C1404.21 775.219 1404.18 775.229 1404.16 775.244L1400.88 777.511L1400.54 776.933C1400.48 776.827 1400.34 776.791 1400.24 776.871L1397.02 779.164C1397.46 779.716 1397.83 780.329 1398.11 780.987L1405.46 777.502L1405.47 777.493ZM1406.62 780.444L1407 782.587C1407.02 782.711 1406.94 782.818 1406.81 782.836L1398.71 783.591C1398.67 782.862 1398.53 782.169 1398.31 781.511L1402.11 780.462C1402.23 780.427 1402.35 780.507 1402.37 780.631L1402.49 781.289L1406.35 780.284C1406.46 780.258 1406.59 780.329 1406.61 780.453L1406.62 780.444ZM1406.26 788.311C1406.37 788.338 1406.5 788.267 1406.52 788.142L1406.89 786C1406.9 785.971 1406.89 785.942 1406.89 785.914C1406.88 785.885 1406.87 785.859 1406.85 785.836C1406.83 785.812 1406.81 785.793 1406.79 785.778C1406.76 785.764 1406.73 785.755 1406.7 785.751L1402.73 785.378L1402.84 784.72C1402.85 784.691 1402.85 784.662 1402.84 784.634C1402.83 784.605 1402.82 784.579 1402.8 784.556C1402.79 784.532 1402.76 784.513 1402.74 784.498C1402.71 784.484 1402.69 784.475 1402.66 784.471L1398.72 784.151C1398.7 784.88 1398.58 785.582 1398.38 786.249L1406.25 788.302L1406.26 788.311ZM1404.16 793.2C1404.1 793.307 1403.96 793.333 1403.86 793.271L1397.16 788.649C1397.59 788.089 1397.93 787.467 1398.19 786.8L1401.79 788.444C1401.9 788.498 1401.95 788.631 1401.88 788.738L1401.54 789.316L1405.16 791.022C1405.26 791.076 1405.31 791.209 1405.25 791.316L1404.16 793.2V793.2ZM1395.2 790.471L1399.91 797.102C1399.98 797.2 1400.12 797.218 1400.21 797.138L1401.87 795.742C1401.97 795.662 1401.97 795.52 1401.89 795.431L1399.09 792.596L1399.61 792.169C1399.7 792.089 1399.7 791.947 1399.61 791.858L1396.8 789.084C1396.32 789.618 1395.79 790.089 1395.19 790.471H1395.2ZM1395.16 799.502C1395.04 799.547 1394.92 799.476 1394.88 799.36L1392.73 791.52C1393.43 791.36 1394.1 791.102 1394.71 790.764L1396.41 794.329C1396.47 794.444 1396.41 794.578 1396.3 794.613L1395.67 794.844L1397.33 798.471C1397.38 798.587 1397.33 798.711 1397.21 798.756L1395.17 799.502H1395.16Z" fill="#191919"/>
</g>
<path d="M1420 962C1420 944.327 1434.33 930 1452 930C1469.67 930 1484 944.327 1484 962C1484 979.673 1469.67 994 1452 994C1434.33 994 1420 979.673 1420 962Z" fill="#F0EDE7"/>
<path d="M1462.5 962.347C1462.5 963.47 1462.41 964.573 1462.24 965.644C1461.67 969.198 1458.85 972.012 1455.3 972.584C1454.23 972.758 1453.12 972.847 1452 972.847C1450.88 972.847 1449.77 972.758 1448.7 972.584C1445.15 972.012 1442.33 969.198 1441.76 965.644C1441.59 964.573 1441.5 963.47 1441.5 962.347C1441.5 961.223 1441.59 960.121 1441.76 959.05C1442.33 955.496 1445.15 952.682 1448.7 952.109C1449.77 951.936 1450.88 951.847 1452 951.847C1453.12 951.847 1454.23 951.936 1455.3 952.109C1458.85 952.682 1461.67 955.496 1462.24 959.05C1462.41 960.121 1462.5 961.223 1462.5 962.347Z" fill="#0B5CFF"/>
<path d="M1454.25 964.972C1454.25 965.592 1453.75 966.096 1453.13 966.096H1448.25C1447.01 966.096 1446 965.088 1446 963.843V959.717C1446 959.097 1446.5 958.593 1447.12 958.593H1452C1453.24 958.593 1454.25 959.601 1454.25 960.846V964.972ZM1457.1 959.271L1455.45 960.51C1455.17 960.72 1455 961.056 1455 961.407V963.282C1455 963.633 1455.17 963.969 1455.45 964.179L1457.1 965.418C1457.48 965.697 1458 965.434 1458 964.967V959.722C1458 959.26 1457.47 958.992 1457.1 959.271Z" fill="white"/>
<path d="M707 941C707 921.118 723.118 905 743 905C762.882 905 779 921.118 779 941C779 960.882 762.882 977 743 977C723.118 977 707 960.882 707 941Z" fill="#F0EDE7"/>
<g clip-path="url(#clip4_31_287)">
<path d="M741.289 929.338L729.359 934.275C728.695 934.549 728.702 935.492 729.37 935.756L741.35 940.507C742.403 940.925 743.575 940.925 744.627 940.507L756.608 935.756C757.275 935.492 757.283 934.549 756.619 934.275L744.689 929.338C743.6 928.887 742.377 928.887 741.289 929.338" fill="#FCB400"/>
<path d="M744.052 943.101V954.97C744.052 955.534 744.621 955.921 745.146 955.713L758.495 950.531C758.644 950.472 758.772 950.37 758.862 950.237C758.952 950.105 759 949.948 759 949.788V937.92C759 937.355 758.431 936.969 757.906 937.177L744.556 942.358C744.408 942.417 744.28 942.52 744.19 942.652C744.1 942.785 744.052 942.941 744.052 943.101Z" fill="#18BFFF"/>
<path d="M740.934 943.714L736.972 945.627L736.57 945.821L728.207 949.828C727.677 950.084 727 949.698 727 949.109V937.97C727 937.756 727.109 937.573 727.256 937.434C727.316 937.374 727.384 937.323 727.458 937.282C727.658 937.162 727.943 937.13 728.185 937.226L740.868 942.251C741.512 942.507 741.563 943.41 740.934 943.714Z" fill="#F82B60"/>
<path d="M740.934 943.714L736.973 945.627L727.256 937.434C727.316 937.374 727.384 937.323 727.458 937.282C727.658 937.162 727.943 937.13 728.186 937.226L740.868 942.251C741.512 942.507 741.563 943.41 740.934 943.714Z" fill="black" fill-opacity="0.25"/>
</g>
<defs>
<linearGradient id="paint0_linear_31_287" x1="236.366" y1="558.043" x2="243.378" y2="570.186" gradientUnits="userSpaceOnUse">
<stop stop-color="#5A62C3"/>
<stop offset="0.5" stop-color="#4D55BD"/>
<stop offset="1" stop-color="#3940AB"/>
</linearGradient>
<clipPath id="clip0_31_287">
<rect width="24" height="24" fill="white" transform="translate(102 324.347)"/>
</clipPath>
<clipPath id="clip1_31_287">
<rect width="24" height="24" fill="white" transform="translate(391 137.347)"/>
</clipPath>
<clipPath id="clip2_31_287">
<rect width="24" height="24" fill="white" transform="translate(321 736.347)"/>
</clipPath>
<clipPath id="clip3_31_287">
<rect width="32" height="32" fill="white" transform="translate(1375 768)"/>
</clipPath>
<clipPath id="clip4_31_287">
<rect width="32" height="32" fill="white" transform="translate(727 925)"/>
</clipPath>
</defs>
</svg>
