<svg width="1728" height="1070" viewBox="0 0 1728 1070" fill="none" xmlns="http://www.w3.org/2000/svg">
<g filter="url(#filter0_f_31_286)">
<path d="M196 280C196 266.745 206.745 256 220 256C233.255 256 244 266.745 244 280C244 293.255 233.255 304 220 304C206.745 304 196 293.255 196 280Z" fill="#F0EDE7"/>
<path d="M227.883 285.607C229.328 285.607 230.5 286.78 230.5 288.227C230.5 289.674 229.328 290.847 227.883 290.847C226.437 290.847 225.265 289.674 225.265 288.227C225.265 286.78 226.437 285.607 227.883 285.607ZM230.315 276.368H223.166V290.682H221.856V276.368H220.548V290.682H219.269V276.368H217.959V290.682H216.65V276.368H209.5V275.058H230.315V276.368ZM230.315 273.779H209.5V272.468H230.315V273.779ZM230.315 269.847V271.157H209.5V269.847H230.315Z" fill="black"/>
</g>
<g filter="url(#filter1_f_31_286)">
<path d="M1293 169C1293 151.327 1307.33 137 1325 137C1342.67 137 1357 151.327 1357 169C1357 186.673 1342.67 201 1325 201C1307.33 201 1293 186.673 1293 169Z" fill="#F0EDE7"/>
<path d="M1332.72 171.902C1333.57 171.798 1335.46 171.574 1335.79 172.006C1336.13 172.43 1335.42 174.214 1335.1 175.006C1335 175.246 1335.21 175.342 1335.42 175.158C1336.83 173.974 1337.2 171.502 1336.91 171.142C1336.62 170.791 1334.16 170.486 1332.65 171.542C1332.42 171.71 1332.46 171.934 1332.72 171.902Z" fill="#FF9900"/>
<path d="M1324.98 176.23C1328.26 176.23 1332.07 175.198 1334.7 173.254C1335.13 172.934 1334.75 172.447 1334.31 172.646C1331.37 173.894 1328.17 174.502 1325.26 174.502C1320.94 174.502 1316.76 173.311 1313.38 171.343C1313.08 171.167 1312.86 171.471 1313.11 171.695C1316.24 174.526 1320.38 176.23 1324.98 176.23Z" fill="#FF9900"/>
<path d="M1319.76 167.071C1319.76 167.367 1319.8 167.607 1319.85 167.783C1319.92 167.981 1320.01 168.173 1320.11 168.359C1320.15 168.423 1320.16 168.487 1320.16 168.543C1320.16 168.623 1320.11 168.703 1320.01 168.783L1319.51 169.119C1319.44 169.167 1319.36 169.191 1319.3 169.191C1319.22 169.191 1319.14 169.151 1319.06 169.079C1318.95 168.963 1318.86 168.837 1318.77 168.703C1318.68 168.549 1318.6 168.391 1318.53 168.231C1317.9 168.967 1317.12 169.335 1316.18 169.335C1315.51 169.335 1314.97 169.143 1314.58 168.759C1314.19 168.375 1313.99 167.863 1313.99 167.223C1313.99 166.543 1314.23 165.991 1314.72 165.575C1315.21 165.159 1315.85 164.951 1316.67 164.951C1316.95 164.951 1317.23 164.975 1317.52 165.015C1317.82 165.055 1318.12 165.119 1318.44 165.191V164.607C1318.44 163.999 1318.31 163.575 1318.06 163.327C1317.81 163.079 1317.38 162.959 1316.76 162.959C1316.48 162.959 1316.2 162.991 1315.9 163.063C1315.61 163.133 1315.32 163.224 1315.04 163.335C1314.95 163.376 1314.85 163.41 1314.76 163.439C1314.7 163.455 1314.66 163.463 1314.63 163.463C1314.52 163.463 1314.46 163.383 1314.46 163.215V162.823C1314.46 162.695 1314.48 162.599 1314.52 162.543C1314.56 162.487 1314.63 162.431 1314.74 162.375C1315.02 162.231 1315.36 162.111 1315.75 162.015C1316.14 161.911 1316.55 161.863 1316.99 161.863C1317.94 161.863 1318.64 162.079 1319.08 162.511C1319.52 162.943 1319.75 163.599 1319.75 164.479V167.071H1319.76ZM1316.52 168.287C1316.79 168.287 1317.06 168.239 1317.34 168.143C1317.63 168.047 1317.89 167.871 1318.1 167.631C1318.23 167.479 1318.33 167.311 1318.37 167.119C1318.42 166.927 1318.45 166.695 1318.45 166.423V166.087C1318.21 166.028 1317.97 165.982 1317.72 165.951C1317.47 165.919 1317.22 165.903 1316.97 165.903C1316.43 165.903 1316.04 166.007 1315.78 166.223C1315.52 166.439 1315.39 166.743 1315.39 167.143C1315.39 167.519 1315.48 167.799 1315.68 167.991C1315.88 168.191 1316.16 168.287 1316.52 168.287H1316.52ZM1322.93 169.151C1322.79 169.151 1322.69 169.127 1322.63 169.071C1322.57 169.023 1322.51 168.91 1322.46 168.759L1320.59 162.575C1320.54 162.415 1320.51 162.311 1320.51 162.255C1320.51 162.127 1320.58 162.055 1320.71 162.055H1321.49C1321.64 162.055 1321.74 162.079 1321.8 162.135C1321.86 162.183 1321.91 162.295 1321.96 162.447L1323.3 167.743L1324.54 162.447C1324.58 162.287 1324.63 162.183 1324.7 162.135C1324.76 162.087 1324.87 162.055 1325.02 162.055H1325.65C1325.81 162.055 1325.91 162.079 1325.97 162.135C1326.04 162.183 1326.09 162.295 1326.13 162.447L1327.39 167.807L1328.77 162.447C1328.81 162.287 1328.87 162.183 1328.93 162.135C1328.99 162.087 1329.09 162.055 1329.24 162.055H1329.98C1330.11 162.055 1330.18 162.119 1330.18 162.255C1330.18 162.295 1330.17 162.335 1330.16 162.383C1330.15 162.451 1330.13 162.518 1330.11 162.583L1328.18 168.767C1328.14 168.927 1328.08 169.031 1328.02 169.079C1327.95 169.127 1327.85 169.159 1327.71 169.159H1327.03C1326.88 169.159 1326.77 169.135 1326.71 169.079C1326.64 169.023 1326.59 168.919 1326.56 168.759L1325.32 163.599L1324.09 168.751C1324.05 168.911 1324 169.015 1323.94 169.071C1323.87 169.127 1323.76 169.151 1323.62 169.151L1322.93 169.151ZM1333.19 169.367C1332.77 169.367 1332.36 169.319 1331.96 169.223C1331.56 169.127 1331.25 169.023 1331.04 168.903C1330.91 168.831 1330.83 168.75 1330.79 168.679C1330.76 168.608 1330.75 168.532 1330.75 168.455V168.047C1330.75 167.879 1330.81 167.799 1330.93 167.799C1330.98 167.799 1331.03 167.807 1331.07 167.823C1331.12 167.839 1331.19 167.871 1331.27 167.903C1331.56 168.027 1331.85 168.121 1332.15 168.183C1332.47 168.247 1332.78 168.279 1333.1 168.279C1333.6 168.279 1334 168.191 1334.27 168.015C1334.54 167.839 1334.68 167.583 1334.68 167.255C1334.68 167.031 1334.61 166.847 1334.47 166.695C1334.32 166.543 1334.05 166.407 1333.66 166.279L1332.5 165.919C1331.92 165.735 1331.49 165.463 1331.23 165.103C1330.96 164.751 1330.83 164.359 1330.83 163.943C1330.83 163.607 1330.9 163.311 1331.04 163.055C1331.19 162.799 1331.38 162.575 1331.62 162.399C1331.86 162.215 1332.13 162.079 1332.45 161.983C1332.77 161.887 1333.1 161.847 1333.45 161.847C1333.63 161.847 1333.81 161.855 1333.99 161.879C1334.17 161.903 1334.34 161.935 1334.51 161.967C1334.67 162.007 1334.82 162.047 1334.96 162.095C1335.1 162.143 1335.22 162.191 1335.3 162.239C1335.41 162.303 1335.49 162.367 1335.54 162.439C1335.58 162.503 1335.61 162.591 1335.61 162.703V163.079C1335.61 163.247 1335.54 163.335 1335.42 163.335C1335.36 163.335 1335.26 163.303 1335.12 163.239C1334.67 163.031 1334.15 162.927 1333.59 162.927C1333.13 162.927 1332.77 162.999 1332.53 163.151C1332.28 163.303 1332.15 163.535 1332.15 163.863C1332.15 164.087 1332.23 164.279 1332.39 164.431C1332.55 164.583 1332.85 164.735 1333.27 164.871L1334.4 165.231C1334.98 165.415 1335.39 165.671 1335.64 165.999C1335.89 166.327 1336.01 166.703 1336.01 167.119C1336.01 167.463 1335.94 167.775 1335.8 168.047C1335.66 168.319 1335.46 168.559 1335.22 168.751C1334.97 168.951 1334.67 169.095 1334.33 169.199C1333.97 169.311 1333.6 169.367 1333.19 169.367Z" fill="#252F3E"/>
</g>
<g filter="url(#filter2_f_31_286)">
<path d="M323 950C323 936.745 333.745 926 347 926C360.255 926 371 936.745 371 950C371 963.255 360.255 974 347 974C333.745 974 323 963.255 323 950Z" fill="#F0EDE7"/>
<path fill-rule="evenodd" clip-rule="evenodd" d="M353.783 941.921C355.76 943.252 357.285 945.131 358.163 947.317C359.043 949.502 359.234 951.894 358.714 954.187C358.194 956.479 356.987 958.568 355.246 960.184C355.042 960.378 354.805 960.535 354.545 960.646C354.285 960.758 354.007 960.824 353.724 960.839C353.441 960.856 353.156 960.823 352.885 960.74C352.615 960.659 352.361 960.532 352.134 960.363C351.397 959.825 350.577 959.407 349.705 959.125C348.832 958.842 347.92 958.698 347.001 958.698C346.081 958.698 345.168 958.842 344.296 959.125C343.424 959.407 342.603 959.825 341.865 960.363C341.642 960.53 341.391 960.659 341.122 960.742C340.853 960.824 340.571 960.858 340.29 960.844C340.008 960.83 339.731 960.767 339.473 960.658C339.214 960.548 338.977 960.396 338.772 960.205C337.019 958.583 335.803 956.482 335.283 954.175C334.763 951.867 334.963 949.461 335.858 947.268C336.753 945.073 338.299 943.193 340.299 941.87C342.298 940.547 344.657 939.841 347.071 939.847C349.47 939.866 351.807 940.59 353.783 941.921V941.921ZM349.32 957.113C350.057 956.825 350.727 956.394 351.288 955.845C351.85 955.295 352.29 954.641 352.584 953.919C352.878 953.198 353.018 952.425 352.997 951.649C352.997 950.092 352.365 948.6 351.241 947.499C350.117 946.397 348.591 945.779 347.001 945.779C345.41 945.779 343.884 946.397 342.76 947.499C341.636 948.6 341.004 950.092 341.004 951.649C340.983 952.425 341.123 953.198 341.417 953.919C341.711 954.641 342.151 955.295 342.713 955.845C343.274 956.394 343.944 956.825 344.68 957.113C345.417 957.401 346.207 957.538 347.001 957.517C347.793 957.538 348.582 957.401 349.32 957.113V957.113Z" fill="#62D84E"/>
</g>
<g filter="url(#filter3_f_31_286)">
<path d="M1307 926C1307 912.745 1317.75 902 1331 902C1344.25 902 1355 912.745 1355 926C1355 939.255 1344.25 950 1331 950C1317.75 950 1307 939.255 1307 926Z" fill="#F0EDE7"/>
<path d="M1334.34 917.534C1335.9 917.085 1337.59 917.609 1338.41 918.847L1342.65 925.222C1342.87 925.559 1343 925.934 1343 926.347C1343 926.759 1342.87 927.134 1342.7 927.472L1338.36 933.959C1337.8 934.822 1336.72 935.347 1335.59 935.347H1329.05C1329.53 935.047 1329.92 934.672 1330.22 934.222L1331.22 932.685L1335.46 926.347L1331.43 920.347L1332.43 918.922C1332.86 918.285 1333.51 917.759 1334.34 917.534ZM1332.95 917.347C1332.47 917.647 1332.08 918.022 1331.78 918.472L1330.78 919.972L1326.54 926.31L1330.52 932.31L1329.53 933.847C1328.7 935.047 1327.01 935.609 1325.46 935.159C1324.63 934.934 1323.98 934.409 1323.55 933.772L1319.35 927.472C1319.13 927.134 1319 926.759 1319 926.347C1319 925.934 1319.13 925.559 1319.35 925.222L1323.68 918.735C1324.24 917.872 1325.32 917.347 1326.45 917.347H1332.95Z" fill="#6363F1"/>
</g>
<g filter="url(#filter4_f_31_286)">
<path d="M943 981C943 967.745 953.745 957 967 957C980.255 957 991 967.745 991 981C991 994.255 980.255 1005 967 1005C953.745 1005 943 994.255 943 981Z" fill="#F0EDE7"/>
<path d="M977.499 987.705C977.499 987.518 977.499 987.424 977.479 987.347C977.415 987.102 977.209 986.91 976.945 986.851C976.862 986.833 976.761 986.833 976.56 986.833H975.908C975.706 986.833 975.606 986.833 975.522 986.814C975.258 986.755 975.052 986.564 974.989 986.319C974.969 986.241 974.969 986.148 974.969 985.961V981.444C974.969 981.257 974.969 981.163 974.989 981.086C975.053 980.841 975.259 980.649 975.523 980.591C975.607 980.572 975.707 980.572 975.909 980.572H976.56C976.762 980.572 976.863 980.572 976.946 980.554C977.21 980.495 977.416 980.304 977.48 980.058C977.5 979.981 977.5 979.888 977.5 979.701V973.219C977.5 973.032 977.5 972.938 977.48 972.861C977.417 972.616 977.211 972.424 976.947 972.366C976.863 972.347 976.763 972.347 976.561 972.347H972.461C972.334 972.347 972.27 972.347 972.211 972.356C972.026 972.385 971.861 972.478 971.749 972.618C971.714 972.662 971.685 972.715 971.626 972.821L967.698 979.914L963.818 972.824C963.76 972.718 963.731 972.665 963.695 972.62C963.583 972.479 963.418 972.385 963.232 972.356C963.173 972.347 963.109 972.347 962.98 972.347H957.439C957.238 972.347 957.137 972.347 957.054 972.365C956.789 972.424 956.583 972.616 956.52 972.861C956.5 972.939 956.5 973.032 956.5 973.219V976.16C956.5 976.347 956.5 976.441 956.52 976.518C956.583 976.763 956.789 976.955 957.053 977.014C957.137 977.032 957.237 977.032 957.439 977.032H958.068C958.269 977.032 958.37 977.032 958.453 977.051C958.717 977.11 958.924 977.301 958.987 977.546C959.007 977.624 959.007 977.717 959.007 977.904V982.179C959.007 982.366 959.007 982.46 958.987 982.537C958.923 982.782 958.717 982.974 958.453 983.033C958.37 983.051 958.269 983.051 958.068 983.051H957.439C957.237 983.051 957.136 983.051 957.053 983.069C956.789 983.128 956.583 983.32 956.52 983.565C956.5 983.642 956.5 983.736 956.5 983.923V990.944C956.5 991.131 956.5 991.225 956.52 991.302C956.583 991.547 956.789 991.739 957.053 991.797C957.137 991.816 957.237 991.816 957.439 991.816H963.104C963.306 991.816 963.407 991.816 963.49 991.797C963.753 991.738 963.96 991.547 964.023 991.302C964.043 991.224 964.043 991.131 964.043 990.944V987.703C964.043 987.516 964.043 987.422 964.023 987.345C963.96 987.1 963.753 986.908 963.49 986.849C963.406 986.831 963.306 986.831 963.104 986.831H962.482C962.281 986.831 962.18 986.831 962.097 986.813C961.833 986.754 961.626 986.562 961.563 986.317C961.543 986.24 961.543 986.146 961.543 985.959V979.331L965.633 986.848C965.74 987.047 965.794 987.146 965.851 987.198C966.036 987.366 966.33 987.369 966.518 987.204C966.577 987.153 966.632 987.055 966.744 986.858L971.282 978.903V985.96C971.282 986.147 971.282 986.241 971.262 986.318C971.199 986.563 970.993 986.755 970.729 986.814C970.645 986.832 970.545 986.832 970.343 986.832H969.131C968.93 986.832 968.828 986.832 968.746 986.85C968.482 986.909 968.275 987.101 968.212 987.346C968.192 987.423 968.192 987.517 968.192 987.704V990.975C968.192 991.162 968.192 991.256 968.212 991.333C968.275 991.578 968.482 991.77 968.746 991.829C968.829 991.847 968.93 991.847 969.131 991.847H976.559C976.761 991.847 976.861 991.847 976.945 991.829C977.209 991.77 977.415 991.578 977.478 991.333C977.498 991.256 977.498 991.162 977.498 990.975V987.704L977.499 987.705Z" fill="#70C31C"/>
</g>
<defs>
<filter id="filter0_f_31_286" x="190" y="250" width="60" height="60" filterUnits="userSpaceOnUse" color-interpolation-filters="sRGB">
<feFlood flood-opacity="0" result="BackgroundImageFix"/>
<feBlend mode="normal" in="SourceGraphic" in2="BackgroundImageFix" result="shape"/>
<feGaussianBlur stdDeviation="3" result="effect1_foregroundBlur_31_286"/>
</filter>
<filter id="filter1_f_31_286" x="1287" y="131" width="76" height="76" filterUnits="userSpaceOnUse" color-interpolation-filters="sRGB">
<feFlood flood-opacity="0" result="BackgroundImageFix"/>
<feBlend mode="normal" in="SourceGraphic" in2="BackgroundImageFix" result="shape"/>
<feGaussianBlur stdDeviation="3" result="effect1_foregroundBlur_31_286"/>
</filter>
<filter id="filter2_f_31_286" x="317" y="920" width="60" height="60" filterUnits="userSpaceOnUse" color-interpolation-filters="sRGB">
<feFlood flood-opacity="0" result="BackgroundImageFix"/>
<feBlend mode="normal" in="SourceGraphic" in2="BackgroundImageFix" result="shape"/>
<feGaussianBlur stdDeviation="3" result="effect1_foregroundBlur_31_286"/>
</filter>
<filter id="filter3_f_31_286" x="1301" y="896" width="60" height="60" filterUnits="userSpaceOnUse" color-interpolation-filters="sRGB">
<feFlood flood-opacity="0" result="BackgroundImageFix"/>
<feBlend mode="normal" in="SourceGraphic" in2="BackgroundImageFix" result="shape"/>
<feGaussianBlur stdDeviation="3" result="effect1_foregroundBlur_31_286"/>
</filter>
<filter id="filter4_f_31_286" x="937" y="951" width="60" height="60" filterUnits="userSpaceOnUse" color-interpolation-filters="sRGB">
<feFlood flood-opacity="0" result="BackgroundImageFix"/>
<feBlend mode="normal" in="SourceGraphic" in2="BackgroundImageFix" result="shape"/>
<feGaussianBlur stdDeviation="3" result="effect1_foregroundBlur_31_286"/>
</filter>
</defs>
</svg>
