<svg width="254" height="46" viewBox="0 0 254 46" fill="none" xmlns="http://www.w3.org/2000/svg">
<path fill-rule="evenodd" clip-rule="evenodd" d="M0.523254 17.9941C0.523254 12.117 4.52305 6.99419 10.2246 5.56879L30.5233 0.494141V10.4941L0.523254 17.9941ZM0.523254 17.9941L20.5233 22.9941V32.9941L10.2247 30.4194C4.5231 28.9941 0.523256 23.8711 0.523254 17.9941ZM30.8219 40.4194L10.5232 45.4941V35.4941L40.5233 27.9941C40.5233 33.8711 36.5234 38.9941 30.8219 40.4194ZM30.8218 15.5688C36.5234 16.9941 40.5233 22.1171 40.5233 27.9941L20.5233 22.9941V12.9941L30.8218 15.5688ZM176.035 37.9868V21.5681H171.685V17.5213H176.035V15.6905C176.035 9.65882 180.385 7.57757 184.483 7.57757L187.073 7.57751V11.74H185.043C181.873 11.74 181.12 13.6671 181.12 16.0952V17.5213H186.803V21.5681H181.12V37.9868H176.035ZM196.01 7.86664V37.9868H191.003V7.86664H196.01ZM149.396 7.86664V37.9868H154.48V26.5593C154.48 23.6301 156.336 21.6066 159.546 21.6066C162.755 21.6066 163.934 23.4759 163.934 26.8676V37.9868H169.018V25.5186C169.018 20.2769 166.332 17.1744 161.344 17.1744C158.444 17.1744 156.027 18.3114 154.48 20.1806V7.86664H149.396ZM60.5233 31.9936C60.5233 36.2333 64.8346 38.4108 69.7258 38.4108C74.4624 38.4108 79.0251 36.5029 79.0251 32.0321C79.0251 27.7348 74.5784 26.5014 70.8471 25.8654C67.8311 25.3453 65.8013 24.8056 65.8013 23.2448C65.8013 21.6644 67.9858 21.1634 69.7644 21.1634C71.7171 21.1634 73.6504 21.9536 73.6504 23.7071V23.9578H78.6771V23.6494C78.6771 19.5639 74.4624 17.1744 69.7644 17.1744C64.8346 17.1744 60.8133 19.3519 60.8133 23.3796C60.8133 27.4264 64.9893 28.8911 68.8944 29.5463C72.4324 30.1244 74.0564 30.6061 74.0564 32.2249C74.0564 33.7279 72.0651 34.4024 69.8804 34.4024C67.2124 34.4024 65.5886 33.5738 65.5886 31.8973V31.5504H60.5233V31.9936ZM99.5193 17.5213V37.9868H104.546V17.5213H99.5193ZM135.657 38.4108C129.142 38.4108 124.599 34.1713 124.599 27.6963C124.599 21.2406 129.142 17.1744 135.657 17.1744C142.134 17.1744 145.768 21.4718 145.768 25.2103V25.3644H140.722C140.722 25.2773 140.706 25.1819 140.69 25.0838C140.68 25.0301 140.671 24.9758 140.664 24.9213C140.336 22.9749 138.596 21.3754 135.599 21.3754C132.351 21.3754 129.78 23.5144 129.78 27.6963C129.78 31.8588 132.351 34.2098 135.599 34.2098C139.04 34.2098 140.529 32.4368 140.703 30.2978H145.768C145.768 34.1134 142.25 38.4108 135.657 38.4108ZM199.73 27.7541C199.73 33.9784 204.235 38.3916 210.73 38.3916C217.227 38.3916 221.732 33.9784 221.732 27.7541C221.732 21.5296 217.227 17.1744 210.73 17.1744C204.235 17.1744 199.73 21.5296 199.73 27.7541ZM216.588 27.7541C216.588 31.6661 214.23 34.2483 210.73 34.2483C207.232 34.2483 204.873 31.6661 204.873 27.7541C204.873 23.8228 207.232 21.3369 210.73 21.3369C214.23 21.3369 216.588 23.8228 216.588 27.7541ZM224.277 17.5213H229.555L232.223 34.3061L236.34 17.5213H241.773L245.93 34.3061L248.578 17.5213H253.857L249.642 37.9868H242.663L239.067 22.6088L235.528 37.9868H228.51L224.277 17.5213ZM85.3903 32.3379C85.3903 35.8863 87.0801 37.9844 91.1849 37.9844C92.3836 37.9844 94.4544 37.9821 94.4544 37.9821V33.2658H92.6054C90.4941 33.2658 90.4941 31.4216 90.4941 29.9821V21.1803H96.6034V17.1334H90.4941V10.3886H85.3903V13.6453C85.3903 16.9599 85.1776 17.1334 82.5096 17.1334H80.5376V21.1803H85.3903V32.3379ZM118.173 37.9844C114.069 37.9844 112.379 35.8863 112.379 32.3379V21.1803H107.526V17.1334H109.498C112.166 17.1334 112.379 16.9599 112.379 13.6453V10.3886H117.483V17.1334H123.592V21.1803H117.483V29.9821C117.483 31.4216 117.483 33.2658 119.594 33.2658H121.443V37.9821C121.443 37.9821 119.372 37.9844 118.173 37.9844ZM101.997 14.6661C103.63 14.6661 104.954 13.3464 104.954 11.7184C104.954 10.0905 103.63 8.77077 101.997 8.77077C100.363 8.77077 99.0393 10.0905 99.0393 11.7184C99.0393 13.3464 100.363 14.6661 101.997 14.6661Z" fill="white"/>
</svg>
